<?xml version="1.0" standalone="no"?>
<!DOCTYPE svg PUBLIC "-//W3C//DTD SVG 20010904//EN"
 "http://www.w3.org/TR/2001/REC-SVG-20010904/DTD/svg10.dtd">
<svg version="1.0" xmlns="http://www.w3.org/2000/svg"
 width="360.000000pt" height="360.000000pt" viewBox="0 0 360.000000 360.000000"
 preserveAspectRatio="xMidYMid meet">
<metadata>
Created by potrace 1.14, written by Peter Selinger 2001-2017
</metadata>
<g transform="translate(0.000000,360.000000) scale(0.100000,-0.100000)"
fill="#000000" stroke="none">
<path d="M392 3457 l-82 -82 0 -366 0 -365 53 -52 53 -52 127 0 c70 0 127 3
127 8 0 4 -38 45 -85 92 l-85 85 0 285 0 285 115 115 c63 63 115 118 115 122
0 5 -57 8 -128 8 l-127 0 -83 -83z"/>
<path d="M1092 3457 l-82 -82 0 -366 0 -365 53 -52 53 -52 127 0 c70 0 127 3
127 8 0 4 -38 45 -85 92 l-85 85 0 285 0 285 90 90 c77 76 90 94 90 122 l0 33
-103 0 -102 0 -83 -83z"/>
<path d="M1430 3445 l0 -95 108 0 108 0 32 -33 32 -33 0 -320 0 -320 53 -52
53 -52 127 0 c70 0 127 3 127 8 0 4 -40 48 -90 97 l-90 90 0 320 0 320 -83 83
-82 82 -148 0 -147 0 0 -95z"/>
<path d="M2130 3445 l0 -95 108 0 108 0 32 -33 32 -33 0 -290 0 -289 83 -83
82 -82 275 0 275 0 83 83 82 82 0 366 0 365 -53 52 -53 52 -127 0 c-70 0 -127
-3 -127 -8 0 -4 38 -45 85 -92 l85 -85 0 -285 0 -286 -33 -32 -33 -32 -185 0
-185 0 -37 38 -37 38 0 290 0 289 -83 83 -82 82 -148 0 -147 0 0 -95z"/>
<path d="M310 1800 l0 -500 95 0 95 0 0 249 0 249 -25 30 c-19 22 -25 41 -25
76 0 42 2 46 25 46 l25 0 0 175 0 175 -95 0 -95 0 0 -500z"/>
<path d="M1008 2098 l-3 -203 -252 -3 c-139 -1 -253 -6 -253 -10 0 -4 37 -44
83 -89 l82 -83 170 -2 170 -3 3 -202 2 -203 95 0 95 0 0 205 0 205 250 0 250
0 0 -205 0 -205 95 0 95 0 2 203 3 202 253 3 252 2 0 -205 0 -205 95 0 95 0 2
203 3 202 253 3 252 2 0 -205 0 -205 95 0 95 0 0 500 0 500 -95 0 -95 0 0
-205 0 -205 -252 2 -253 3 -3 203 -2 202 -95 0 -95 0 0 -205 0 -205 -252 2
-253 3 -3 203 -2 202 -95 0 -95 0 0 -205 0 -205 -250 0 -250 0 0 205 0 205
-95 0 -95 0 -2 -202z"/>
<path d="M310 952 l0 -107 188 -188 187 -187 370 0 370 0 110 -110 110 -110
-668 0 -667 0 0 -95 0 -95 1490 0 1490 0 0 107 0 108 -192 192 -193 193 -370
0 -370 0 -102 102 c-57 57 -103 106 -103 110 0 5 299 8 665 8 l665 0 0 90 0
90 -1490 0 -1490 0 0 -108z m697 -89 c3 -10 47 -60 97 -110 l91 -93 -215 0
-215 0 -103 103 c-56 56 -102 106 -102 110 0 4 99 7 220 7 201 0 221 -2 227
-17z m700 0 c3 -10 47 -60 97 -110 l91 -93 -215 0 -215 0 -103 103 c-56 56
-102 106 -102 110 0 4 99 7 220 7 201 0 221 -2 227 -17z m528 -503 l110 -110
-217 0 -217 0 -98 101 c-54 55 -99 105 -101 110 -2 5 83 9 205 9 l208 0 110
-110z m700 0 l110 -110 -228 0 c-177 0 -227 3 -227 13 0 7 -40 53 -90 102 -49
49 -90 93 -90 97 0 5 93 8 208 8 l207 0 110 -110z"/>
</g>
</svg>
