<svg xmlns="http://www.w3.org/2000/svg" viewBox="0 0 309.35 358.7"><title>Asset 4</title><g id="51b982c1-933f-4772-b76a-9d37c1435924" data-name="Layer 2"><g id="74a6ba5e-8427-4e7d-b3cf-685309f6a01b" data-name="Layer 8"><polygon points="231.27 108.55 212.46 89.73 212.46 31.43 207.95 26.93 185.25 26.93 185.25 2.5 218.07 2.5 236.89 21.32 236.89 79.61 241.39 84.12 277.91 84.12 282.42 79.61 282.42 25.61 264.92 8.12 264.92 2.5 293.86 2.5 306.85 15.49 306.85 89.73 288.03 108.55 231.27 108.55" style="fill:#fff"/><path d="M292.83,5l11.52,11.52V88.7L287,106.05H232.31L215,88.7V30.4l-6-6H187.75V5H217l17.35,17.35v58.3l6,6H279l6-6V24.57L267.42,7.08V5h25.41m2.07-5H262.42V9.15l1.47,1.47,16,16V78.58l-3,3H242.43l-3-3V20.28l-1.46-1.46L220.57,1.46,219.11,0H182.75V29.43h24.17l3,3v58.3l1.46,1.46,17.35,17.35,1.47,1.47h58.83l1.46-1.47,17.35-17.35,1.47-1.46V14.45L307.88,13,296.36,1.46,294.9,0Z"/><polygon points="85.49 108.55 72.5 95.56 72.5 21.32 91.32 2.5 120.25 2.5 120.25 8.05 96.93 31.43 96.93 85.44 114.42 102.93 114.42 108.55 85.49 108.55" style="fill:#fff"/><path d="M117.75,5V7L94.43,30.4V86.48L111.92,104v2.08H86.52L75,94.53V22.35L92.35,5h25.4m5-5H90.28L88.82,1.46,71.46,18.82,70,20.28V96.6l1.46,1.46L83,109.58l1.46,1.47h32.47V101.9l-1.46-1.47-16-16V32.47l21.86-21.92,1.46-1.47V0Z"/><path d="M155.49,108.55l-13-13V31.44L138,26.91H115.25V2.5h32.82l18.82,18.81V85.44l16.8,16.76.73.73v5.62Z" style="fill:#fff"/><path d="M147,5l17.36,17.35V86.48L181.92,104v2.08h-25.4L145,94.53V30.4l-6-6H117.75V5H147m2.07-5H112.75V29.41h24.19L140,32.47V96.6l1.47,1.47L153,109.59l1.46,1.46h32.47v-9.16l-1.47-1.46-16.06-16V20.28l-1.46-1.47L150.57,1.46,149.1,0Z"/><polygon points="15.49 108.55 2.5 95.56 2.5 21.32 21.32 2.5 50.25 2.5 50.25 8.05 26.93 31.43 26.93 85.44 44.42 102.93 44.42 108.55 15.49 108.55" style="fill:#fff"/><path d="M47.75,5V7L24.43,30.4V86.48L41.92,104v2.08H16.52L5,94.53V22.35L22.35,5h25.4m5-5H20.28L18.82,1.46,1.46,18.82,0,20.28V96.6l1.46,1.46L13,109.58l1.46,1.47H46.92V101.9l-1.46-1.47-16-16V32.47L51.29,10.55l1.46-1.47V0Z"/><rect x="2.5" y="126.33" width="24.43" height="106.05" style="fill:#fff"/><path d="M24.43,128.82V229.87H5V128.82H24.43m5-5H0V234.87H29.43v-111Z"/><polygon points="282.42 232.37 282.42 191.56 236.85 191.56 236.85 232.37 212.41 232.37 212.41 191.56 166.85 191.56 166.85 232.37 142.41 232.37 142.41 191.56 96.93 191.56 96.93 232.37 72.5 232.37 72.5 191.56 40.89 191.56 21.93 172.61 21.93 167.13 72.5 167.13 72.5 126.33 96.93 126.33 96.93 167.13 142.41 167.13 142.41 126.33 166.85 126.33 166.85 167.13 212.41 167.13 212.41 126.33 236.85 126.33 236.85 167.13 282.42 167.13 282.42 126.33 306.85 126.33 306.85 232.37 282.42 232.37" style="fill:#fff"/><path d="M304.35,128.82V229.87H284.91v-40.8H234.35v40.8H214.91v-40.8H164.35v40.8H144.91v-40.8H94.43v40.8H75v-40.8H41.92L24.43,171.58v-2H75V128.82H94.43v40.81h50.48V128.82h19.44v40.81h50.56V128.82h19.44v40.81h50.56V128.82h19.44m5-5H279.91v40.81H239.35V123.82H209.91v40.81H169.35V123.82H139.91v40.81H99.43V123.82H70v40.81H19.43v9l1.47,1.46L38.39,192.6l1.46,1.47H70v40.8H99.43v-40.8h40.48v40.8h29.44v-40.8h40.56v40.8h29.44v-40.8h40.56v40.8h29.44v-111Z"/><path d="M2.5,356.2V331.77H132.77L116.4,315.39H42.83L2.5,275.06V250.15H306.84v24.43H176.58L193,291h73.57l40.32,40.32V356.2Zm270.27-24.43L256.4,315.39H221l15.89,15.89v.49Zm-70,0L186.4,315.39l-35.37.08,15.77,15.77,0,.53ZM158.4,291l-15.9-15.9v-.48H106.58L123,291Zm-70,0-15.9-15.9v-.48H36.58L53,291Z" style="fill:#fff"/><path d="M304.34,252.65v19.43H170.54l21.37,21.38h73.57l38.86,38.86V353.7H5V334.27H138.8l-21.37-21.38H43.86L5,274V252.65H304.34M121.91,293.46h42.52L145,274v-1.95H100.54l21.37,21.38m-70,0H94.43L75,274v-1.95H30.54l21.37,21.38m182.43,40.81H278.8l-21.37-21.38H214.91l19.43,19.43v1.95m-69.91,0H208.8l-21.37-21.38L145,313l19.34,19.34.09,1.95m144.91-86.62H0V276.1l1.47,1.47,38.86,38.86,1.46,1.46h73.57l11.38,11.38H0V358.7H309.34V330.25l-1.46-1.47L269,289.92l-1.47-1.46H194l-11.38-11.38H309.34V247.65ZM112.61,277.08H141l.49.49,10.89,10.89H124l-11.38-11.38Zm-70,0H71l.49.49,10.89,10.89H54L42.61,277.08ZM227,317.89h28.38l11.38,11.38H238.36l-.48-.49L227,317.89Zm-69.93.06,28.32-.06,11.37,11.38H168.36l-.48-.49L157.05,318Z"/></g></g></svg>