<svg width="360" height="360" viewBox="0 0 360 360" fill="none" xmlns="http://www.w3.org/2000/svg">
<path d="M103.08 251.059L121.89 269.895L121.89 328.244L126.4 332.747H149.1V357.198H116.28L97.46 338.362V280.023L92.96 275.51H56.44L51.93 280.023L51.93 334.069L69.43 351.573V357.198H40.49L27.5 344.197L27.5 269.895L46.32 251.059H103.08Z" fill="white"/>
<path d="M248.86 251.059L261.85 264.06V338.362L243.03 357.198H214.1V351.643L237.42 328.244V274.189L219.93 256.684V251.059H248.86Z" fill="white"/>
<path d="M178.86 251.059L191.86 264.07V328.234L196.35 332.768H219.1V357.198H186.28L167.46 338.372V274.189L150.66 257.415L149.93 256.684V251.059H178.86Z" fill="white"/>
<path d="M318.86 251.059L331.85 264.06V338.362L313.03 357.198H284.1V351.643L307.42 328.244V274.189L289.93 256.684V251.059H318.86Z" fill="white"/>
<path d="M307.42 233.264H331.85V127.126H307.42V233.264Z" fill="white"/>
<path d="M51.93 127.136V167.98H97.5V127.136H121.94V167.98L167.5 167.98V127.136H191.94V167.98H237.42V127.136L261.85 127.136V167.98H293.46L312.42 186.946V192.43H261.85V233.264H237.42V192.43H191.94V233.264H167.5V192.43L121.94 192.43V233.264H97.5V192.43H51.93V233.264H27.5V127.136H51.93Z" fill="white"/>
<path d="M331.85 3.2021V27.6526L201.58 27.6526L217.95 44.0462L291.52 44.0462L331.85 84.41V109.341L27.51 109.341V84.8904H157.77L141.35 68.4566H67.78L27.46 28.1029V3.2021L331.85 3.2021ZM61.58 27.6526L77.95 44.0462H113.35L97.46 28.143V27.6526H61.58ZM131.58 27.6526L147.95 44.0462L183.32 43.9662L167.55 28.183V27.6526L131.58 27.6526ZM175.95 68.4566L191.85 84.3699V84.8504H227.77L211.35 68.4566L175.95 68.4566ZM245.95 68.4566L261.85 84.3699V84.8504H297.77L281.35 68.4566H245.95Z" fill="white"/>
</svg>
