<svg width="854" height="310" viewBox="0 0 854 310" fill="none" xmlns="http://www.w3.org/2000/svg">
<g id="SINTEZE" clip-path="url(#clip0_2002_20)">
<g id="SLOW">
<path id="Vector" d="M24.43 187.75V209L30.43 215H88.7L106.05 232.35V287L88.7 304.35H16.52L5 292.83V267.42H7.08L24.57 284.91H80.65L86.65 278.91V240.36L80.65 234.36H22.35L5 217V187.75H24.43ZM29.43 182.75H0V219.11L1.46 220.57L18.82 237.93L20.28 239.39H78.58L81.58 242.39V276.84L78.58 279.84H26.64L10.64 263.84L9.17 262.37H0V294.9L1.46 296.36L13 307.88L14.46 309.35H90.77L92.23 307.88L109.58 290.53L111.05 289.07V230.24L109.58 228.77L92.23 211.42L90.77 210H32.47L29.47 207V182.75H29.43Z" fill="white"/>
</g>
<g id="SMID">
<path id="Vector_2" d="M94.53 75L106.05 86.52V111.92H104L86.48 94.43H30.4L7 117.75H5V92.35L22.35 75H94.53ZM96.6 70H20.28L18.82 71.46L1.46 88.82L0 90.28V122.75H9.08L10.55 121.29L32.47 99.43H84.41L100.41 115.43L101.88 116.89H111.03V84.45L109.58 83L98.06 71.46L96.6 70Z" fill="white"/>
<path id="Vector_3" d="M24.41 117.75V139L30.41 145H94.53L106.05 156.52V181.92H104L86.48 164.39H22.35L5 147V117.75H24.41ZM29.41 112.75H0V149.1L1.46 150.57L18.81 167.93L20.28 169.39H84.41L100.41 185.45L101.87 186.92H111.03V154.45L109.59 153L98.07 141.47L96.6 140H32.47L29.41 136.94V112.75Z" fill="white"/>
</g>
<g id="STOP">
<path id="Vector_4" d="M94.53 5L106.05 16.52V41.92H104L86.48 24.43H30.4L7 47.75H5V22.35L22.35 5H94.53ZM96.6 0H20.28L18.82 1.46L1.46 18.82L0 20.28V52.75H9.08L10.55 51.29L32.47 29.43H84.41L100.41 45.43L101.88 46.89H111.03V14.45L109.58 13L98.06 1.46L96.6 0Z" fill="white"/>
</g>
<g id="ITOP">
<path id="Vector_5" d="M229.87 5V24.43H128.82V5H229.87ZM234.87 0H123.87V29.43H234.87V0Z" fill="white"/>
</g>
<g id="ILOW">
<path id="Vector_6" d="M171.58 24.43L189.07 41.92V75H229.87V94.43H189.07V144.91H229.87V164.35H189.07V214.91H229.87V234.35H189.07V284.91H229.87V304.35H128.82V284.91H169.63V234.35H128.82V214.91H169.63V164.35H128.82V144.91H169.63V94.43H128.82V75H169.63V24.43H171.63M173.7 19.43H164.7V70H123.82V99.43H164.63V139.91H123.82V169.35H164.63V209.91H123.82V239.35H164.63V279.91H123.82V309.35H234.87V279.91H194.07V239.35H234.87V209.91H194.07V169.35H234.87V139.91H194.07V99.43H234.87V70H194.07V39.85L192.6 38.39L175.11 20.9L173.65 19.43H173.7Z" fill="white"/>
</g>
<g id="N">
<path id="Vector_7" d="M353.7 5V304.34H332.32L293.46 265.48V191.91L272.08 170.54V304.34H252.65V5H274L312.86 43.86V117.43L334.24 138.8V5H353.7ZM272.08 75H274L293.43 94.43V51.91L272.08 30.54V75ZM272.08 145H274L293.43 164.43V121.91L272.05 100.54V145M334.24 208.8V164.43L332.29 164.34L313 145L312.91 187.43L334.29 208.8M334.29 278.8V234.34H332.34L312.91 214.91V257.43L334.29 278.8ZM358.7 0H329.27V126.74L317.89 115.36V41.79L316.43 40.33L277.57 1.47L276.1 0H247.65V309.34H277.08V182.61L288.46 194V267.56L289.92 269.03L328.78 307.89L330.25 309.35H358.7V0ZM277.08 71V42.61L288.46 54V82.36L277.57 71.47L277.08 70.98V71ZM277.08 141V112.61L288.46 124V152.37L277.57 141.48L277.08 140.99V141ZM317.89 185.39L317.95 157.07L328.78 167.9L329.27 168.38V196.76L317.89 185.39ZM317.89 255.39V227L328.78 237.9L329.27 238.38V266.76L317.89 255.38V255.39Z" fill="white"/>
</g>
<g id="TTOP">
<path id="Vector_8" d="M477.52 5V24.43H376.52V5H477.52ZM482.52 0H371.52V29.43H482.52V0Z" fill="white"/>
</g>
<g id="TLOW">
<path id="Vector_9" d="M419.23 24.43L436.72 41.92V75H477.52V94.43H436.72V144.91H477.52V164.35H436.72V304.35H417.28V164.35H376.48V144.91H417.28V94.43H376.48V75H417.28V24.43H419.28M421.35 19.43H412.35V70H371.55V99.43H412.35V139.91H371.55V169.35H412.35V309.35H441.79V169.35H482.59V139.91H441.79V99.43H482.59V70H441.79V39.85L440.32 38.39L422.76 20.9L421.3 19.43H421.35Z" fill="white"/>
</g>
<g id="E1LOW">
<path id="Vector_10" d="M601.35 129.37V164.37L525.7 164.45L519.7 170.45V181.77L553 215L581.94 214.95V199.37H601.37V234.37H519.75V279L525.75 285H581.97V269.37H601.4V304.37H517.7L500.3 287V215L525.7 214.95L500.3 189.8V162.35L517.65 145L581.92 144.91V129.37H601.35ZM606.35 124.37H576.92V139.92L517.65 140H515.58L514.12 141.46L496.77 158.82L495.3 160.28V191.85L496.78 193.32L513.57 209.93H500.29H495.29V289.03L496.76 290.49L514.11 307.84L515.57 309.31H606.34V264.31H576.92V279.85H527.77L524.77 276.85V239.39H601.39H606.39V194.39H576.92V209.94L555 210L524.69 179.69V172.52L527.69 169.52L601.27 169.44H606.27V124.44L606.35 124.37Z" fill="white"/>
</g>
<g id="E1TOP">
<path id="Vector_11" d="M601.35 5V24.43H525.7L519.7 30.43V41.72L553 75H525.5L500.3 49.8V22.35L517.65 5H601.35ZM606.35 0H515.58L514.12 1.46L496.77 18.82L495.3 20.28V51.84L496.77 53.3L522 78.49L523.42 80H565.05L556.51 71.46L524.73 39.64V32.47L527.73 29.47H606.31V0H606.35Z" fill="white"/>
</g>
<g id="ZLOW">
<path id="Vector_12" d="M725.18 24.43V50L643.56 131.62V145H672.71L723.23 94.47H725.18V120L643.56 201.62V214.94H672.75L723.23 164.46L725.18 164.38V190L643.56 271.62V284.94H725.18V304.38H624.18V263.54L653.37 234.35H624.13V193.54L653.32 164.35H624.13V123.54L723.23 24.43H725.18ZM730.18 19.43H721.18L719.7 20.9L620.59 120L619.13 121.47V169.35H641.25L620.59 190L619.13 191.47V239.35H641.25L620.59 260L619.13 261.47V309.35H730.13V279.91H648.56V273.66L728.71 193.51L730.18 192.04V159.12L724.95 159.35L723.01 159.44L721.07 159.52L719.7 160.9L670.7 209.9H648.56V203.65L728.71 123.5L730.18 122.03V89.43H721.18L719.7 90.9L670.63 140H648.56V133.68L728.71 53.53L730.18 52V19.43Z" fill="white"/>
</g>
<g id="ZTOP">
<path id="Vector_13" d="M725.18 5V24.43H624.18V5H725.18ZM730.18 0H619.18V29.43H730.18V0Z" fill="white"/>
</g>
<g id="E2LOW">
<path id="Vector_14" d="M849 199.37V234.37H767.38V279L773.38 285H829.6V269.37H849V304.37H765.3L748 287V215L829.62 214.95V199.37H849ZM854 194.37H824.57V209.92L748 210H743V289.11L744.47 290.57L761.82 307.92L763.28 309.39H854V264.39H824.57V279.93H775.42L772.42 276.93V239.39H849.04H854.04V194.39L854 194.37Z" fill="white"/>
</g>
<g id="E2TOP">
<path id="Vector_15" d="M849 5V24.43H773.35L767.35 30.43V41.72L800.63 75H829.57V94.39H767.38V111.72L800.63 145H829.57V129.37H849V164.37H792.5L748 119.76V75H773.2L748 49.76V22.35L765.3 5H849ZM854 0H763.23L761.77 1.46L744.42 18.82L743 20.28V51.84L744.47 53.3L761.07 70H743V121.87L744.47 123.34L766.74 145.63L789 167.88L790.47 169.35H854V124.35H824.57V140H802.7L772.38 109.68V99.39H834.57V70H802.7L772.38 39.64V32.47L775.38 29.47H854V0Z" fill="white"/>
</g>
</g>
<defs>
<clipPath id="clip0_2002_20">
<rect width="854" height="309.35" fill="white"/>
</clipPath>
</defs>
</svg>
