<svg width="808" height="183" viewBox="0 0 808 183" fill="none" xmlns="http://www.w3.org/2000/svg">
<path d="M95.5009 3.03809H70.8685V53.7401C64.1384 46.3334 55.7257 42.8321 45.6304 43.2361C32.9777 43.2361 22.2768 47.8148 13.5276 56.9721C4.50917 66.5334 0 78.5861 0 93.1301C0 107.809 4.50917 119.929 13.5276 129.49C22.2768 138.647 32.9777 143.226 45.6304 143.226C55.5911 143.63 63.8692 140.129 70.4648 132.722H73.4933L76.1181 142.216H95.5009V3.03809ZM25.44 93.1301C25.44 85.0501 27.9301 78.5861 32.9105 73.7381C37.487 69.4288 42.9384 67.2741 49.2648 67.2741C55.8603 67.2741 61.1098 69.5634 65.0133 74.1421C68.9168 78.8554 70.8685 85.1847 70.8685 93.1301C70.8685 101.21 68.9168 107.539 65.0133 112.118C61.1098 116.697 55.8603 118.986 49.2648 118.986C42.8038 118.986 37.3524 116.831 32.9105 112.522C27.9301 107.674 25.44 101.21 25.44 93.1301Z" fill="white"/>
<path d="M141.858 16.7741V16.3701C141.725 11.7914 140.059 7.88608 136.861 4.65408C133.663 1.42208 129.798 -0.126587 125.268 0.00808H125.068C120.537 0.00808 116.606 1.62408 113.275 4.85608C110.076 8.22275 108.477 12.1954 108.477 16.7741C108.744 21.3527 110.476 25.1907 113.674 28.2881C117.006 31.5201 120.937 33.1361 125.468 33.1361C129.998 33.1361 133.863 31.5201 137.061 28.2881C140.126 25.0561 141.725 21.2181 141.858 16.7741Z" fill="white"/>
<path d="M112.259 44.2461V142.216H137.295V44.2461H112.259Z" fill="white"/>
<path d="M244.507 44.2461H225.124L222.499 53.5381H219.672C212.808 46.2661 204.462 42.8321 194.636 43.2361C181.984 43.2361 171.283 47.8148 162.533 56.9721C153.515 66.5335 149.006 78.5861 149.006 93.1301C149.006 107.809 153.515 119.929 162.533 129.49C171.283 138.647 181.984 143.226 194.636 143.226C204.462 143.63 212.875 140.129 219.874 132.722V136.358C219.874 151.575 212.135 159.184 196.655 159.184C188.579 159.184 182.32 157.029 177.878 152.72L173.436 146.256H149.006C149.006 155.009 153.178 162.955 161.524 170.092C170.811 178.307 182.791 182.414 197.463 182.414C213.211 182.414 225.258 177.364 233.604 167.264C240.872 158.376 244.507 146.727 244.507 132.318V44.2461ZM174.446 93.1301C174.446 85.0501 176.936 78.5861 181.916 73.7381C186.493 69.4288 192.011 67.2741 198.472 67.2741C204.933 67.2741 210.116 69.5635 214.019 74.1421C217.923 78.8555 219.874 85.1848 219.874 93.1301C219.874 101.21 217.923 107.539 214.019 112.118C210.116 116.697 204.933 118.986 198.472 118.986C191.877 118.986 186.358 116.831 181.916 112.522C176.936 107.674 174.446 101.21 174.446 93.1301Z" fill="white"/>
<path d="M290.743 16.7741V16.3701C290.608 11.7914 288.926 7.88608 285.695 4.65408C282.465 1.42208 278.561 -0.126587 273.985 0.00808H273.783C269.206 0.00808 265.236 1.62408 261.87 4.85608C258.64 8.22275 257.025 12.1954 257.025 16.7741C257.294 21.3527 259.044 25.1907 262.274 28.2881C265.639 31.5201 269.61 33.1361 274.187 33.1361C278.763 33.1361 282.667 31.5201 285.897 28.2881C288.993 25.0561 290.608 21.2181 290.743 16.7741Z" fill="white"/>
<path d="M261.467 44.2461V142.216H286.503V44.2461H261.467Z" fill="white"/>
<path d="M339.402 63.8401C346.805 63.8401 351.516 66.8027 353.535 72.7281H377.764C377.091 64.2441 373.389 57.2414 366.659 51.7201C359.66 45.9294 350.776 43.0341 340.008 43.0341C329.778 43.0341 321.163 45.4581 314.164 50.3061C306.491 55.6927 302.655 62.9647 302.655 72.1221C302.655 81.6834 307.299 89.0901 316.587 94.3421C321.432 97.0354 328.903 99.4594 338.998 101.614C343.305 102.691 346.401 103.836 348.286 105.048C351.112 106.933 352.526 109.492 352.526 112.724C352.526 118.919 348.42 122.016 340.209 122.016C334.825 122.016 330.653 120.467 327.691 117.37C325.403 115.081 324.057 112.118 323.653 108.482H299.425C299.963 118.851 304.136 127.201 311.943 133.53C319.615 139.859 329.172 143.024 340.613 143.024C351.247 143.024 359.929 140.398 366.659 135.146C373.928 129.49 377.562 121.679 377.562 111.714C377.562 102.422 373.86 95.3521 366.457 90.5041C361.611 87.1374 353.603 84.2421 342.43 81.8181C332.604 79.7981 327.691 76.4987 327.691 71.9201C327.691 69.7654 328.634 67.9474 330.518 66.4661C332.672 64.7154 335.633 63.8401 339.402 63.8401Z" fill="white"/>
<path d="M437.931 43.2361H435.307C421.577 43.2361 409.867 47.6801 400.175 56.5681C389.945 65.9948 384.83 78.2494 384.83 93.3321C384.427 106.799 388.868 118.38 398.156 128.076C407.309 137.772 418.548 142.822 431.874 143.226H434.701C448.565 143.226 460.275 138.782 469.832 129.894C479.928 120.333 484.975 108.011 484.975 92.9281C485.379 79.5961 481.004 68.0821 471.851 58.3861C462.564 48.5554 451.257 43.5054 437.931 43.2361ZM410.472 93.1301C410.472 85.4541 412.761 78.9901 417.337 73.7381C422.048 68.4861 428.038 65.8601 435.307 65.8601C442.575 65.8601 448.43 68.4861 452.872 73.7381C457.18 78.8554 459.333 85.3194 459.333 93.1301C459.333 100.941 457.18 107.405 452.872 112.522C448.43 117.774 442.575 120.4 435.307 120.4C428.038 120.4 422.048 117.774 417.337 112.522C412.761 107.27 410.472 100.806 410.472 93.1301Z" fill="white"/>
<path d="M563.718 44.2461V90.1001C563.718 101.412 561.026 109.627 555.642 114.744C551.738 118.38 546.825 120.198 540.903 120.198C533.5 120.198 528.452 116.899 525.76 110.3C524.01 106.125 523.135 99.7288 523.135 91.1101V44.2461H496.484V97.3721C496.484 111.512 499.782 122.622 506.377 130.702C513.242 139.051 523.068 143.226 535.855 143.226C548.508 143.226 558.065 139.186 564.526 131.106H566.949L570.583 142.216H589.966V44.2461H563.718Z" fill="white"/>
<path d="M701.215 89.09C701.215 75.0847 698.119 64.042 691.928 55.962C685.332 47.478 675.91 43.3034 663.661 43.438C658.008 43.1687 652.556 44.1787 647.307 46.468C642.057 48.7574 637.615 52.0567 633.981 56.366H630.549L627.318 44.246H607.128V142.216H632.971V96.16C632.971 84.7134 636.067 76.364 642.259 71.112C646.97 67.2067 652.422 65.456 658.613 65.86C666.555 66.264 671.67 70.8427 673.958 79.596C674.766 82.6934 675.17 87.8107 675.17 94.948V142.216H701.215V89.09Z" fill="white"/>
<path d="M807.619 3.03809H782.987V53.7401C776.257 46.3334 767.844 42.8321 757.749 43.2361C745.096 43.2361 734.395 47.8148 725.646 56.9721C716.627 66.5334 712.118 78.5861 712.118 93.1301C712.118 107.809 716.627 119.929 725.646 129.49C734.395 138.647 745.096 143.226 757.749 143.226C767.709 143.63 775.987 140.129 782.583 132.722H785.611L788.236 142.216H807.619V3.03809ZM737.558 93.1301C737.558 85.0501 740.048 78.5861 745.029 73.7381C749.605 69.4288 755.057 67.2741 761.383 67.2741C767.978 67.2741 773.228 69.5634 777.131 74.1421C781.035 78.8554 782.987 85.1847 782.987 93.1301C782.987 101.21 781.035 107.539 777.131 112.118C773.228 116.697 767.978 118.986 761.383 118.986C754.922 118.986 749.471 116.831 745.029 112.522C740.048 107.674 737.558 101.21 737.558 93.1301Z" fill="white"/>
</svg>
