<svg width="730" height="294" viewBox="0 0 730 294" fill="none" xmlns="http://www.w3.org/2000/svg">
<path fill-rule="evenodd" clip-rule="evenodd" d="M204.755 87.0628C204.755 125.144 183.738 151.554 152.635 164.668C150.726 165.469 148.72 166.242 146.68 166.976L178.184 185.327C182.133 187.672 184.979 191.365 186.122 195.795C187.278 200.228 186.685 204.878 184.382 208.834C181.29 214.123 175.628 217.404 169.508 217.404C166.494 217.404 163.52 216.596 160.876 215.062L138.904 202.235V232.822C138.904 243.543 143.288 250.913 144.65 252.917L144.809 253.177C147.489 256.269 148.98 260.286 148.98 264.378C148.98 273.91 141.231 281.638 131.725 281.638C125.821 281.638 120.379 278.644 117.105 273.444C113.884 268.977 106.264 256.586 104.858 238.651H99.8908C98.451 256.586 90.827 268.977 87.5832 273.579C84.3765 278.644 78.9307 281.638 72.9826 281.638C63.5107 281.638 55.7721 273.91 55.7721 264.378C55.7721 260.286 57.2524 256.269 59.9399 253.177L60.0983 252.917C61.4168 250.913 65.8105 243.543 65.8105 232.822V202.235L43.8321 215.062C41.1952 216.596 38.211 217.404 35.1998 217.404C29.1101 217.404 23.4216 214.123 20.3598 208.834C18.0703 204.878 17.4364 200.228 18.6267 195.795C19.7732 191.365 22.6191 187.672 26.5778 185.327L58.0179 166.976C55.9846 166.242 54.0288 165.469 52.0697 164.668C20.9938 151.554 0 125.144 0 87.0628C0 30.8568 45.8114 0 102.359 0C158.937 0 204.755 30.8568 204.755 87.0628ZM152.797 148.489C168.062 138.383 186.209 120.927 186.209 95.3683C186.209 52.7357 152.517 24.0752 102.359 24.0752C52.1945 24.0752 18.4985 52.7357 18.4985 95.3683C18.4985 120.927 36.6868 138.383 51.9517 148.489C69.8736 160.41 90.9282 166.672 102.359 166.672C113.82 166.672 134.814 160.41 152.797 148.489ZM102.359 140.015C105.977 140.015 108.89 142.938 108.89 146.533C108.89 150.152 105.977 153.079 102.359 153.079C98.7878 153.079 95.8475 150.152 95.8475 146.533C95.8475 142.938 98.7878 140.015 102.359 140.015ZM157.147 98.9098C152.47 116.589 140.698 128.851 130.919 126.209C121.087 123.617 116.929 107.161 121.61 89.4453C126.327 71.7868 138.058 59.5447 147.88 62.1465C157.659 64.7551 161.827 81.2378 157.147 98.9098ZM133.85 218.383V186.303C133.85 181.407 130.063 177.413 125.39 177.413H79.3252C74.6821 177.413 70.9021 181.407 70.9021 186.303V218.383C70.9021 223.276 74.6821 227.246 79.3252 227.246H125.39C130.063 227.246 133.85 223.276 133.85 218.383ZM73.8357 126.212C64.0132 128.851 52.2922 116.589 47.6221 98.9135C42.8744 81.2313 47.0556 64.7554 56.8748 62.1469C66.704 59.545 78.4216 71.7871 83.0918 89.4456C87.8159 107.162 83.6447 123.617 73.8357 126.212ZM634.425 195.897C642.096 202.615 646.182 212.08 646.241 223.263C646.241 223.314 646.249 223.361 646.249 223.395V252.739C646.249 256.979 642.826 260.387 638.617 260.387C634.383 260.387 630.963 256.979 630.963 252.739V223.548C630.963 216.676 628.744 211.244 624.349 207.399C620.144 203.71 614.026 201.673 607.119 201.673C600.225 201.673 594.099 203.71 589.903 207.399C585.511 211.244 583.263 216.676 583.263 223.548V252.739C583.263 256.979 579.86 260.387 575.639 260.387C571.417 260.387 567.993 256.979 567.993 252.739V161.277C567.993 157.037 571.417 153.621 575.639 153.621C579.86 153.621 583.263 157.037 583.263 161.277V193.253C589.843 188.809 598.167 186.394 607.119 186.394C617.743 186.394 627.425 189.773 634.425 195.897ZM554.85 245.115C559.068 245.115 562.5 248.523 562.5 252.737C562.5 256.977 559.068 260.39 554.85 260.39C544.392 260.39 536.866 257.945 531.855 252.907C525.962 246.97 525.33 239.105 525.3 233.176C525.3 233.074 525.292 232.994 525.292 232.904V203.925H518.003C513.786 203.925 510.37 200.492 510.37 196.269C510.37 192.058 513.786 188.621 518.003 188.621H525.292V161.454C525.292 157.227 528.699 153.81 532.924 153.81C537.146 153.81 540.565 157.227 540.565 161.454V188.621H547.846C552.071 188.621 555.495 192.058 555.495 196.269C555.495 200.492 552.071 203.925 547.846 203.925H540.565V229.411C540.582 229.535 540.582 229.653 540.582 229.789V231.13C540.548 235.472 540.531 239.954 542.716 242.127C544.609 244.045 548.928 245.115 554.85 245.115ZM309.977 216.127C327.605 216.127 338.997 224.408 338.997 237.246C338.997 246.808 333.799 252.16 329.442 254.974C323.061 259.082 313.43 261.094 300.019 261.094C286.527 261.094 274.682 258.021 265.764 252.245C262.213 249.949 261.211 245.213 263.515 241.664C265.806 238.133 270.55 237.115 274.071 239.419C280.422 243.536 289.629 245.79 300.019 245.79C312.802 245.79 318.56 243.803 321.177 242.123C323.053 240.909 323.715 239.636 323.715 237.246C323.715 233.231 316.591 231.415 309.977 231.415H290.104C272.459 231.415 261.063 223.143 261.063 210.33C261.063 202.907 264.665 196.591 271.173 192.521C277.707 188.451 287.155 186.469 300.053 186.469C313.04 186.469 324.427 189.559 333.014 195.399C336.485 197.784 337.401 202.533 335.017 206.022C332.65 209.515 327.881 210.415 324.41 208.042C318.471 203.997 309.803 201.748 300.053 201.748C287.822 201.748 281.988 203.798 279.26 205.491C276.846 206.998 276.349 208.513 276.349 210.33C276.349 214.302 283.469 216.127 290.104 216.127H309.977ZM700.676 216.127C718.313 216.127 729.7 224.408 729.7 237.246C729.7 246.808 724.507 252.16 720.137 254.974C713.76 259.082 704.125 261.094 690.718 261.094C677.222 261.094 665.381 258.021 656.463 252.245C652.916 249.949 651.902 245.213 654.197 241.664C656.501 238.133 661.236 237.115 664.77 239.419C671.134 243.536 680.328 245.79 690.718 245.79C703.489 245.79 709.267 243.803 711.855 242.123C713.76 240.909 714.414 239.636 714.414 237.246C714.414 233.231 707.273 231.415 700.676 231.415H680.786C663.158 231.415 651.77 223.143 651.77 210.33C651.77 202.907 655.36 196.591 661.872 192.521C668.402 188.451 677.859 186.469 690.761 186.469C703.726 186.469 715.114 189.559 723.701 195.399C727.197 197.784 728.096 202.533 725.72 206.022C723.344 209.515 718.588 210.415 715.109 208.042C709.165 203.997 700.515 201.748 690.761 201.748C678.525 201.748 672.687 203.798 669.955 205.491C667.545 206.998 667.053 208.513 667.053 210.33C667.053 214.302 674.176 216.127 680.786 216.127H700.676ZM498.407 196.075C506.086 202.806 510.151 212.258 510.223 223.442C510.223 223.493 510.236 223.531 510.236 223.573V252.926C510.236 257.17 506.803 260.57 502.595 260.57C498.352 260.57 494.941 257.17 494.941 252.926V223.722C494.941 216.85 492.713 211.409 488.339 207.577C484.126 203.889 478.008 201.851 471.097 201.851C464.198 201.851 458.072 203.889 453.876 207.577C449.476 211.409 447.262 216.85 447.262 223.722V252.926C447.262 257.17 443.838 260.57 439.608 260.57C435.399 260.57 431.971 257.17 431.971 252.926V194.216C431.971 190.002 435.399 186.572 439.608 186.572C443.579 186.572 446.85 189.586 447.223 193.448C453.804 188.987 462.124 186.572 471.097 186.572C481.712 186.572 491.411 189.938 498.407 196.075ZM415.124 186.571C419.341 186.571 422.765 190.005 422.765 194.215V252.92C422.765 253.582 422.663 254.228 422.519 254.843C422.663 255.429 422.765 256.07 422.765 256.727C422.765 268.161 418.319 277.791 409.905 284.582C402.455 290.575 392.158 293.885 380.89 293.885C369.634 293.885 359.328 290.575 351.883 284.582C348.594 281.934 348.098 277.116 350.72 273.836C353.38 270.542 358.2 270.037 361.475 272.69C366.21 276.493 373.109 278.602 380.89 278.602C388.675 278.602 395.574 276.493 400.3 272.681C405.073 268.84 407.487 263.463 407.487 256.727C407.487 256.07 407.585 255.429 407.746 254.843C407.627 254.461 407.555 254.075 407.525 253.701C400.941 258.145 392.621 260.573 383.647 260.573C373.019 260.573 363.333 257.198 356.346 251.061C348.667 244.347 344.585 234.874 344.526 223.699C344.526 223.653 344.509 223.614 344.509 223.572V194.215C344.509 190.005 347.941 186.571 352.154 186.571C356.38 186.571 359.799 190.005 359.799 194.215V223.423C359.799 230.286 362.014 235.714 366.418 239.568C370.622 243.261 376.732 245.277 383.647 245.277C390.55 245.277 396.664 243.261 400.86 239.568C405.26 235.714 407.487 230.286 407.487 223.423V194.215C407.487 190.005 410.911 186.571 415.124 186.571ZM526.079 116.824C528.523 119.85 528.047 124.303 525.018 126.739C517.127 133.075 506.21 136.577 494.246 136.577C482.26 136.577 471.331 133.075 463.457 126.739C454.611 119.587 449.918 109.435 449.918 97.403C449.918 85.3495 454.611 75.2102 463.457 68.0545C471.357 61.7307 482.277 58.225 494.246 58.225C506.21 58.225 517.127 61.7307 525.018 68.0545C526.486 69.2387 527.398 70.9321 527.61 72.808C527.814 74.6924 527.271 76.5344 526.079 77.9774C524.734 79.6623 522.723 80.6215 520.593 80.6215C518.981 80.6215 517.436 80.0783 516.168 79.0554C510.801 74.7094 503.02 72.3369 494.246 72.3369C485.481 72.3369 477.691 74.7094 472.32 79.0554C466.809 83.4863 464.03 89.6701 464.03 97.403C464.03 105.132 466.809 111.311 472.32 115.742C477.691 120.084 485.481 122.456 494.246 122.456C503.02 122.456 510.792 120.084 516.168 115.742C517.436 114.736 518.981 114.193 520.593 114.193C522.723 114.193 524.734 115.144 526.079 116.824ZM283.456 115.744C288.844 120.081 296.604 122.458 305.378 122.458C314.152 122.458 321.945 120.081 327.329 115.744C328.585 114.734 330.1 114.195 331.729 114.195C333.863 114.195 335.887 115.141 337.219 116.826C338.407 118.269 338.95 120.132 338.751 121.987C338.555 123.871 337.635 125.548 336.163 126.736C328.292 133.077 317.359 136.578 305.378 136.578C293.409 136.578 282.48 133.077 274.597 126.736C265.751 119.589 261.063 109.454 261.063 97.4005C261.063 85.347 265.751 75.2119 274.597 68.052C282.48 61.7282 293.409 58.2267 305.378 58.2267C332.616 58.2267 339.875 72.814 339.875 81.4042C339.875 88.475 337.003 94.6799 331.78 98.8986C327.202 102.578 320.914 104.616 314.101 104.616H276.027L276.659 106.326C277.995 110.044 280.303 113.202 283.456 115.744ZM276.519 88.8187L275.946 90.5079H314.101C317.715 90.5079 320.846 89.5954 322.921 87.919C324.86 86.3614 325.785 84.2478 325.785 81.4042C325.785 78.8874 322.124 72.3344 305.378 72.3344C296.604 72.3344 288.844 74.7111 283.456 79.0529C280.193 81.6928 277.855 84.9778 276.519 88.8187ZM424.387 72.8076C424.59 74.692 424.047 76.534 422.885 77.9727C421.523 79.6662 419.529 80.6169 417.374 80.6169C415.753 80.6169 414.204 80.0736 412.97 79.055C407.582 74.709 399.792 72.3365 391.022 72.3365C382.261 72.3365 374.463 74.709 369.092 79.055C363.581 83.4817 360.802 89.6655 360.802 97.4026V129.183C360.802 133.075 357.654 136.25 353.759 136.25C349.881 136.25 346.699 133.075 346.699 129.183V65.2699C346.699 61.3823 349.881 58.2246 353.759 58.2246C357.582 58.2246 360.734 61.3356 360.802 65.1638L360.827 67.5406L362.779 66.1994C370.378 61.0555 380.399 58.2246 391.022 58.2246C403.012 58.2246 413.946 61.7303 421.799 68.0499C423.267 69.2425 424.187 70.9317 424.387 72.8076ZM436.995 58.2267C440.894 58.2267 444.05 61.3844 444.05 65.272V129.181C444.05 133.077 440.894 136.252 436.995 136.252C433.113 136.252 429.96 133.077 429.96 129.181V65.272C429.96 61.3844 433.113 58.2267 436.995 58.2267ZM609.418 58.2254C613.313 58.2254 616.482 61.3789 616.482 65.2665V129.18C616.482 133.071 613.313 136.25 609.418 136.25C605.689 136.25 602.609 133.318 602.414 129.574L602.278 127.325L600.415 128.573C592.838 133.738 582.804 136.577 572.168 136.577C560.182 136.577 549.253 133.071 541.4 126.739C532.507 119.588 527.853 109.436 527.853 97.4034C527.853 85.3457 532.507 75.2106 541.4 68.055C549.253 61.7269 560.182 58.2254 572.168 58.2254C582.774 58.2254 592.825 61.0563 600.398 66.196L602.359 67.5414L602.371 65.1604C602.452 61.3407 605.604 58.2254 609.418 58.2254ZM594.094 115.743C599.597 111.312 602.371 105.132 602.371 97.4034C602.371 89.6621 599.597 83.4783 594.094 79.0516C588.714 74.7098 580.937 72.3331 572.168 72.3331C563.407 72.3331 555.613 74.7098 550.225 79.0516C544.735 83.4783 541.917 89.6621 541.917 97.4034C541.917 105.132 544.735 111.312 550.225 115.743C555.613 120.076 563.407 122.457 572.168 122.457C580.937 122.457 588.714 120.076 594.094 115.743ZM436.995 41.6931C432.574 41.6931 428.942 38.0898 428.942 33.6546C428.942 29.211 432.574 25.6034 436.995 25.6034C441.433 25.6034 445.064 29.211 445.064 33.6546C445.064 38.0898 441.433 41.6931 436.995 41.6931Z" fill="white"/>
</svg>
