<svg width="368" height="330" viewBox="0 0 368 330" fill="none" xmlns="http://www.w3.org/2000/svg">
<path d="M261.499 290.134C260.248 289.507 258.913 289.192 257.493 289.192C256.14 289.192 254.94 289.507 253.892 290.134C252.844 290.763 252.024 291.622 251.432 292.712C250.841 293.804 250.545 295.06 250.545 296.481C250.545 297.869 250.841 299.109 251.432 300.2C252.024 301.29 252.844 302.142 253.892 302.753C254.94 303.365 256.14 303.67 257.493 303.67C258.913 303.67 260.248 303.365 261.499 302.753C262.75 302.142 263.849 301.29 264.796 300.2C265.742 299.109 266.452 297.869 266.926 296.481C266.452 295.06 265.742 293.804 264.796 292.712C263.849 291.622 262.75 290.763 261.499 290.134Z" fill="white"/>
<path d="M323.445 289.886C322.245 289.291 320.799 288.994 319.109 288.994C317.418 288.994 315.965 289.291 314.748 289.886C313.531 290.481 312.6 291.333 311.959 292.44C311.316 293.548 310.995 294.878 310.995 296.431C310.995 297.985 311.316 299.324 311.959 300.448C312.6 301.571 313.531 302.431 314.748 303.026C315.965 303.621 317.418 303.918 319.109 303.918C320.799 303.918 322.245 303.621 323.445 303.026C324.645 302.431 325.567 301.58 326.209 300.472C326.851 299.365 327.173 298.035 327.173 296.481C327.173 294.894 326.851 293.548 326.209 292.44C325.567 291.333 324.645 290.481 323.445 289.886Z" fill="white"/>
<path d="M112.095 240.054C113.559 229.547 113.954 212.921 111.723 197.681C110.73 190.9 106.89 191.363 106.518 197.31C106.518 197.31 106.147 232.153 106.147 243.771C106.147 248.231 110.759 249.632 112.095 240.054Z" fill="white"/>
<path d="M346.666 246.001C346.083 253.196 341.811 258.442 328.013 265.34C316.121 271.285 308.71 272.508 296.481 263.47C283.963 254.219 286.886 219.799 290.532 206.23C292.478 198.989 283.928 198.618 275.514 203.049C275.343 203.139 275.22 203.29 275.288 203.471C276.358 206.333 279.254 227.884 275.875 257.07C275.816 257.58 275.312 257.926 274.799 257.951C269.743 258.194 253.355 257.963 249.647 257.906C249.261 257.901 248.979 257.541 249.067 257.165C249.619 254.78 250.062 245.846 250.118 242.748C250.712 210.048 253.686 204.698 244.064 193.221C238.092 186.097 244.785 175.938 251.394 169.172C251.606 168.955 251.974 169.038 252.071 169.325C254.843 177.481 263.826 180.822 275.171 180.954C275.836 180.961 276.352 181.537 276.29 182.199L275.198 193.824C275.186 193.958 275.353 194.03 275.44 193.928C276.865 192.259 281.969 186.491 288.336 181.807C288.508 181.68 288.522 181.431 288.368 181.282C285.436 178.449 284.533 175.88 284.292 174.979C284.239 174.783 284.213 174.584 284.213 174.382V152.361C284.213 151.91 284.535 151.525 284.978 151.439C312.378 146.145 302.8 167.946 302.8 167.946C308.376 168.69 314.324 164.973 309.863 152.707C309.444 151.555 308.005 149.362 307.633 144.158C307.187 144.095 281.982 149.362 279.737 125.355C278.302 110.045 284.302 101.894 286.815 94.3519C290.225 84.1296 288.723 65.3824 288.133 59.4236C288.114 59.2403 288.267 59.0868 288.451 59.1031C290.851 59.315 301.028 60.7215 310.713 60.568C311.483 60.5557 312.178 61.0448 312.444 61.7677C314.803 68.1878 314.487 86.2085 310.607 96.9541C306.979 106.993 300.603 123.277 304.882 127.54C305.235 127.893 305.841 127.681 305.919 127.187C307.8 114.892 310.579 116.515 317.014 104.952C326.538 87.8345 324.936 70.9411 319.604 61.2866C319.318 60.7684 319.634 60.127 320.22 60.0455C321.017 59.935 321.795 59.8046 322.555 59.655C332.217 57.7447 335.142 56.8118 343.692 53.8382C344.811 55.3731 349.837 62.8144 350.012 86.5727C350.279 123.266 326.908 131.079 322.395 140.735C318.971 148.061 327.756 154.619 328.822 163.858C329.933 173.479 326.621 183.101 315.693 186.38C315.614 186.403 315.57 186.487 315.597 186.566C316.647 189.637 317.294 192.814 317.294 195.384C317.298 204 314.484 210.627 311.651 222.558C311.369 224.354 310.975 226.416 310.436 228.784C308.257 238.355 307.659 246.703 309.677 252.16C311.432 256.913 315.172 259.478 321.577 258.75C322.844 258.605 324.005 258.374 325.068 258.077C335.532 255.126 335.885 248.603 335.885 248.603C328.451 246.744 325.848 237.823 333.655 233.363C340.301 229.566 347.532 235.328 346.666 246.001ZM335.338 304.29C333.782 306.555 331.61 308.306 328.821 309.546C326.032 310.785 322.794 311.405 319.109 311.405C315.39 311.405 312.144 310.785 309.372 309.546C306.599 308.306 304.435 306.555 302.881 304.29C301.325 302.026 300.548 299.423 300.548 296.481C300.548 293.473 301.325 290.845 302.881 288.597C304.435 286.35 306.599 284.598 309.372 283.342C312.144 282.086 315.39 281.457 319.109 281.457C322.794 281.457 326.032 282.086 328.821 283.342C331.61 284.598 333.782 286.35 335.338 288.597C336.892 290.845 337.67 293.456 337.67 296.431C337.67 299.406 336.892 302.026 335.338 304.29ZM294.133 278.21C293.034 279.086 291.555 279.523 289.696 279.523C287.903 279.523 286.45 279.086 285.334 278.21C284.218 277.334 283.66 276.152 283.66 274.664C283.66 273.145 284.218 271.937 285.334 271.045C286.45 270.152 287.903 269.706 289.696 269.706C291.555 269.706 293.034 270.152 294.133 271.045C295.231 271.937 295.781 273.145 295.781 274.664C295.781 276.152 295.231 277.334 294.133 278.21ZM294.919 310.612H284.523V281.854L289.747 282.846L294.919 281.854V310.612ZM278.337 310.612H267.636L266.86 304.605C265.488 306.711 263.78 308.361 261.727 309.546C259.58 310.785 257.138 311.405 254.399 311.405C251.559 311.405 249.066 310.785 246.919 309.546C244.771 308.306 243.09 306.555 241.873 304.29C240.656 302.026 240.047 299.423 240.047 296.481C240.047 293.473 240.656 290.845 241.873 288.597C243.09 286.35 244.771 284.598 246.919 283.342C249.066 282.086 251.559 281.457 254.399 281.457C257.138 281.457 259.58 282.077 261.727 283.317C263.746 284.482 265.439 286.091 266.815 288.133L268.751 272.433H279.503L276.511 295.687L278.337 310.612ZM234.771 215.894C232.912 237.823 221.765 257.284 209.864 257.709C204.659 257.895 192.02 260.497 188.674 233.363C184.213 256.408 175.291 257.895 167.485 257.709C137.377 256.992 156.791 180.776 118.501 174.458C94.865 170.557 84.2135 179.097 84.2135 179.097C84.2135 179.097 90.1971 184.321 86.4439 190.991C83.0983 196.938 72.6894 194.336 72.6894 186.902C72.6894 179.801 77.8939 165.344 115.812 163.858C135.252 163.096 148.732 165.55 157.076 173.522C173.804 189.504 171.574 231.505 171.574 231.505C171.574 235.593 173.804 235.965 174.92 232.62C174.92 232.62 179.146 226.073 177.574 199.347C177.202 193.028 175.75 179.743 169.777 171.846C169.519 171.504 169.473 171.048 169.673 170.669C169.673 170.669 174.557 164.798 175.291 165.716C179.752 171.292 187.528 174.084 195.624 174.591C196.199 174.627 196.721 174.935 197.018 175.428C203.738 186.561 200.011 230.854 205.031 234.478C206.939 235.856 207.633 230.39 208.005 225.186L208.377 191.734C209.039 181.807 212.223 175.473 216.927 172.035C222.317 168.095 245.354 162.362 249.091 161.397C249.396 161.318 249.707 161.5 249.79 161.804L250.662 165.002C250.717 165.204 250.636 165.417 250.459 165.53C248.766 166.605 240.299 172.277 237.373 179.84C233.563 189.69 235.424 208.181 234.771 215.894ZM225.441 310.612L224.473 304.751C224.398 304.879 224.327 305.01 224.249 305.133C222.948 307.199 221.35 308.761 219.457 309.819C217.563 310.876 215.484 311.405 213.219 311.405C210.514 311.405 208.206 310.86 206.297 309.769C204.386 308.678 202.924 307.133 201.91 305.133C200.896 303.134 200.389 300.795 200.389 298.117V282.3H210.734V296.679C210.734 298.762 211.258 300.365 212.306 301.489C213.354 302.613 214.859 303.174 216.82 303.174C218.273 303.174 219.49 302.886 220.471 302.307C221.451 301.729 222.212 300.894 222.754 299.803C223.294 298.712 223.565 297.406 223.565 295.886V282.3H233.911V300.844L235.787 310.612H225.441ZM195.267 309.967C194.252 310.332 192.916 310.662 191.26 310.959C189.603 311.257 187.895 311.405 186.138 311.405C182.925 311.405 180.297 310.926 178.252 309.967C176.206 309.009 174.693 307.629 173.713 305.827C172.732 304.026 172.242 301.919 172.242 299.506V289.787H166.359V285.374L172.242 283.044L176.705 274.664H182.588V282.3H194.759V289.787H182.588V298.117C182.588 300.167 183.01 301.605 183.855 302.431C184.701 303.257 186.239 303.67 188.47 303.67C189.891 303.67 191.15 303.547 192.249 303.298C193.347 303.051 194.353 302.728 195.267 302.331V309.967ZM161.694 306.893C160.341 308.381 158.414 309.505 155.912 310.265C153.41 311.025 150.401 311.405 146.885 311.405C143.267 311.405 140.097 310.975 137.376 310.116C134.654 309.257 132.533 308.051 131.011 306.497C129.49 304.943 128.678 303.142 128.577 301.092H139.075C139.311 301.853 139.776 302.505 140.47 303.051C141.162 303.596 142.084 304.01 143.234 304.29C144.383 304.571 145.752 304.712 147.341 304.712C149.403 304.712 150.968 304.513 152.032 304.116C153.098 303.72 153.63 303.125 153.63 302.331C153.63 301.704 153.224 301.233 152.413 300.918C151.601 300.605 150.215 300.365 148.254 300.2L143.132 299.803C139.717 299.572 137.004 299.068 134.993 298.29C132.981 297.514 131.535 296.505 130.656 295.266C129.777 294.026 129.338 292.614 129.338 291.027C129.338 288.878 130.023 287.102 131.392 285.696C132.761 284.292 134.671 283.235 137.123 282.523C139.573 281.813 142.439 281.457 145.718 281.457C148.964 281.457 151.855 281.871 154.391 282.697C156.927 283.523 158.955 284.673 160.477 286.143C161.998 287.614 162.876 289.341 163.114 291.324H152.616C152.447 290.697 152.075 290.127 151.5 289.614C150.925 289.102 150.131 288.68 149.116 288.349C148.102 288.019 146.8 287.854 145.212 287.854C143.352 287.854 141.94 288.052 140.977 288.448C140.013 288.845 139.532 289.407 139.532 290.134C139.532 290.697 139.827 291.143 140.419 291.473C141.01 291.804 142.118 292.035 143.741 292.167L150.486 292.663C153.833 292.861 156.47 293.333 158.397 294.076C160.324 294.82 161.694 295.804 162.505 297.026C163.316 298.249 163.722 299.704 163.722 301.39C163.722 303.571 163.046 305.406 161.694 306.893ZM83.0983 219.983C83.0983 198.838 93.9905 182.256 109.492 182.256C124.994 182.256 137.559 199.395 137.559 220.54C137.559 241.685 124.994 258.824 109.492 258.824C93.9905 258.824 83.0983 241.128 83.0983 219.983ZM43.6935 310.079C22.2504 313.944 17.8569 296.141 22.6135 285.288C27.3698 274.434 49.4555 273.468 50.5707 288.335C132.269 251.361 190.187 265.442 206.717 270.933C207.073 271.051 206.928 271.581 206.562 271.5C184.573 266.66 159.864 268.264 159.864 268.264C100.384 275.698 65.1361 306.214 43.6935 310.079ZM18.0426 206.973C22.8756 204.372 25.9348 203.61 29.6638 202.844C30.6903 202.631 31.7529 202.465 32.8916 202.356C33.1163 202.334 33.2929 202.15 33.2988 201.925L33.6301 189.75C33.6449 189.24 33.1839 188.846 32.682 188.936C32.682 188.936 26.2212 189.504 18.8233 192.868C18.5346 192.999 18.2288 192.686 18.2288 192.37V187.724C18.2288 187.345 18.4742 187.01 18.8345 186.891C39.5318 180.207 59.8032 173.812 64.6234 172.242C64.9356 172.141 65.2546 172.373 65.253 172.701C65.2272 178.982 64.837 192.48 63.3957 204C63.3472 204.387 63.3388 204.723 63.3659 205.012C63.3873 205.242 63.5874 205.415 63.8188 205.422C65.9542 205.486 67.4317 205.511 70.992 203.697C71.0866 203.649 71.2008 203.717 71.1988 203.822L71.0222 213.172C71.019 213.348 70.9379 213.517 70.7999 213.627C69.3614 214.774 68.2971 215.099 67.0686 215.374C65.669 215.688 64.1573 215.683 62.0741 215.624C61.9751 215.621 61.8876 215.694 61.8748 215.792C59.2758 235.348 56.1024 249.003 59.6783 251.948C65.5612 256.792 76.0604 246.781 77.4834 245.374C77.5857 245.273 77.7316 245.236 77.8704 245.273L82.67 246.556C82.8728 246.61 82.9567 246.852 82.8279 247.018C80.5204 249.991 63.6355 271.017 47.5854 271.142C30.3104 271.276 32.7266 238.188 32.7266 238.188L32.9071 218.205C32.9079 218.094 32.8001 218.014 32.6951 218.048C32.1562 218.223 29.5671 218.868 26.9649 219.983C22.8752 221.735 18.4702 224.25 18.0426 224.443V206.973ZM18.0426 180.955C23.0932 148.105 32.8451 152.396 32.8451 125.507C32.8451 109.27 14.3252 91.7501 18.7864 70.5641C35.143 62.3869 47.7823 64.6173 47.7823 64.6173C49.2694 72.7942 37.9537 94.6987 44.2284 103.314C45.552 105.131 47.0159 88.5812 53.7305 82.0864C60.4538 75.5833 63.3957 74.6528 86.4439 74.6528C100.942 74.6528 111.909 62.573 114.847 59.6347C117.485 56.9975 117.299 90.2637 116.927 92.4937C113.582 96.2105 99.5668 105.112 88.6746 105.503C76.1173 105.953 71.1872 105.392 61.351 101.972C52.801 98.9985 47.7823 104.583 47.7823 105.503C47.7823 107.184 50.2648 103.8 54.2881 104.202C58.0055 104.574 59.792 107.977 65.4403 110.149C69.3729 111.661 73.7974 111.697 75.3095 111.658C75.607 111.65 75.8508 111.887 75.8528 112.185L75.9618 129.704C75.963 129.889 75.8102 130.04 75.6261 130.038C57.2216 129.836 53.9027 113.337 50.8479 113.321C48.526 113.308 52.6873 120.887 58.1912 131.893C64.3061 144.12 65.1436 162.245 65.2427 165.278C65.251 165.539 65.0888 165.773 64.8418 165.858L19.3066 181.513C17.6712 182.071 18.0021 181.221 18.0426 180.955ZM134.904 96.7462C135.21 96.6639 135.51 96.8977 135.504 97.2142L135.196 116.11C135.191 116.397 135.045 116.66 134.806 116.818C133.364 117.765 128.375 121.74 129.03 131.052C129.724 140.927 137.646 148.718 139.019 149.922C139.152 150.04 139.217 150.216 139.194 150.392C139.194 150.392 136.676 160.381 136.345 160.333C131.141 159.59 118.877 159.314 118.877 159.314C118.548 159.314 118.281 159.048 118.281 158.719V155.103C118.281 154.997 118.171 154.927 118.076 154.974C116.862 155.579 110.47 158.719 104.205 160.978C97.2457 163.487 88.117 160.327 84.7858 150.66C81.455 140.993 85.302 130.017 85.3287 128.919C85.3553 127.821 79.8136 131.428 79.8832 130.04C80.1052 125.591 79.8084 115.804 79.8609 112.521C79.8669 112.142 80.1986 111.855 80.5764 111.892C90.9456 112.895 100.748 108.688 103.515 107.372C103.865 107.206 104.263 107.471 104.244 107.858C104.128 110.262 103.727 117.587 103.544 128.919C103.26 146.581 116.277 145.179 114.784 143.608C107.721 136.174 110.271 109.488 110.791 105.154C110.831 104.824 111.067 104.553 111.387 104.467L134.904 96.7462ZM131.998 80.2334C156.282 42.7864 189.83 28.1548 203.777 25.0472C211.351 23.36 212.094 29.6786 212.094 29.6786C212.383 33.9363 207.668 37.6169 203.483 38.4587C170.484 45.0995 148.062 60.1338 132.335 80.4752C132.172 80.6851 131.854 80.4561 131.998 80.2334ZM181.611 114.051C178.724 108.669 172.974 108.977 170.987 108.863C170.534 108.836 170.183 109.256 170.285 109.699C170.773 111.833 172.02 117.474 172.317 120.742C173.604 134.887 170.039 153.73 169.038 158.63C168.894 159.333 168.276 159.834 167.558 159.834L145.329 160.949C144.883 160.949 144.488 160.669 144.343 160.248C143.75 158.525 142.629 152.942 142.272 150.65C142.22 150.315 142.309 149.979 142.509 149.704C149.482 140.129 146.375 118.945 145.677 114.773C145.612 114.382 145.229 114.127 144.842 114.218L139.699 115.429C139.462 115.484 139.237 115.302 139.241 115.059L139.59 96.2034C139.598 95.7672 139.893 95.3882 140.314 95.2729L168.217 87.6317C168.503 87.5533 168.786 87.7684 168.786 88.0651L168.785 97.8357C168.785 98.1574 169.182 98.3081 169.392 98.0648C172.393 94.5877 185.959 79.6703 197.782 79.6703C206.532 79.6703 208.613 92.4627 208.749 99.9274C209.12 120.37 200.236 152.809 203.982 154.552C207.328 156.109 213.292 154.057 215.204 153.322C215.498 153.209 215.741 153.434 215.812 153.741C216.642 157.36 215.812 165.967 215.812 165.967C215.812 166.315 215.646 166.641 215.365 166.847C214.594 167.411 212.664 168.495 208.377 169.433C201.106 171.024 194.918 172.668 185.329 165.716C170.458 154.937 186.636 123.42 181.611 114.051ZM249.329 129.414C255.601 130.581 264.164 136.849 266.697 142.368C270.199 149.999 277.039 151.355 279.501 151.596C280.014 151.646 280.398 152.083 280.384 152.599L279.757 174.618C279.744 175.067 279.427 175.447 278.987 175.54C276.271 176.114 266.826 177.609 261.577 172.06C255.613 165.753 257.075 138.211 246.295 132.264C245.663 131.956 245.079 131.767 244.613 131.656C244.17 131.551 243.769 131.943 243.862 132.39C244.724 136.546 248.194 151.457 248.823 155.837C248.874 156.192 248.695 156.54 248.375 156.702C242.354 159.744 223.956 164.347 220.473 165.205C220.207 165.27 219.962 165.046 220.005 164.775C220.247 163.268 220.777 158.685 220.144 150.034C219.668 143.517 218.532 134.691 216.117 123.132C210.328 95.4208 217.104 78.0527 218.532 74.8273C218.685 74.4818 218.984 74.2265 219.348 74.1263L246.982 66.6906C247.326 66.5984 247.636 66.9213 247.527 67.2597C245.793 72.6268 235.861 104 237.559 113.323C238.804 120.16 240.272 123.932 241.105 125.678C241.498 126.501 242.482 126.856 243.311 126.474C245.904 125.282 250.883 120.798 251.116 103.938C251.499 76.1396 259.459 61.9312 281.298 59.1238C281.673 59.0756 282.07 58.8629 282.054 59.7258L283.042 83.9228C283.721 90.4605 281.62 92.8782 277.15 97.6974C274.645 100.397 272.265 108.028 271.565 112.07C270.45 118.505 257.693 125.394 249.279 128.974C249.067 129.064 249.103 129.371 249.329 129.414ZM304.659 35.9973C300.274 21.7471 318.785 12.5809 328.822 21.5014C337.273 29.0118 339.231 44.5459 321.016 51.9796C300.843 60.2121 252.972 40.9711 194.878 55.7378C194.878 55.7378 172.512 62.8629 154.064 74.7991C153.725 75.0186 153.382 74.5331 153.702 74.2865C169.054 62.4748 218.002 31.5094 304.659 35.9973ZM351.479 218.194C345.628 214.475 338.833 213.336 332.289 214.796C333.907 208.728 335.267 202.739 335.286 195.556C343.981 187.609 348.283 175.55 346.695 161.795C345.935 155.205 343.434 150.024 341.369 146.093C341.551 145.922 341.729 145.755 341.899 145.595C351.109 136.942 368.254 120.834 368.003 86.4407C367.856 66.4692 364.568 51.9355 358.231 43.2424C356.754 41.2152 354.91 39.5709 352.844 38.3514C354.01 27.2514 349.5 15.8098 340.775 8.05643C329.878 -1.62872 313.399 -2.69282 300.7 5.46814C295.756 8.64576 291.959 12.8171 289.463 17.569C266.684 17.4509 246.55 19.6646 228.976 23.2065C227.807 19.6105 225.347 14.789 220.187 11.1275C214.539 7.11958 207.321 5.82761 199.864 7.48898C194.442 8.69704 179.881 12.7992 161.822 24.77C150.567 32.2303 140.392 41.119 131.396 51.3187C129.818 48.3423 127.367 45.5138 123.499 43.524C116.398 39.87 107.808 41.2331 102.125 46.9147C101.921 47.1191 101.684 47.3597 101.417 47.6325C99.224 49.8661 92.5519 56.6639 86.4443 56.6639C77.1844 56.6639 70.1584 56.8031 64.3522 57.6048C62.0101 52.0719 56.9989 47.9765 50.9091 46.902C49.0164 46.568 31.8066 43.9427 10.7399 54.4745C5.8313 56.9287 2.31156 61.4886 1.18087 66.8581C-2.63677 84.9865 4.54192 100.445 9.78376 111.732C12.1601 116.849 14.8534 122.649 14.8534 125.507C14.8534 135.462 13.4662 138.34 10.7025 144.074C7.50368 150.712 3.12965 159.787 0.309876 177.9C-0.140334 180.391 -0.0930137 182.865 0.406512 185.214C0.296744 186.038 0.237077 186.875 0.237077 187.724V192.37C0.237077 194.875 0.734221 197.299 1.66407 199.529C0.618487 201.827 0.0509651 204.359 0.0509651 206.973V224.443C0.0509651 230.552 3.15232 236.244 8.28598 239.557C10.2447 240.821 12.3975 241.673 14.6199 242.103C14.6167 244.639 14.7118 247.896 15.0618 251.439C15.5442 256.324 16.4216 260.764 17.674 264.759C12.6226 268.017 8.54647 272.564 6.13435 278.068C0.555248 290.798 2.19026 305.662 10.2992 315.935C16.8046 324.177 26.6865 328.585 38.1776 328.585C40.9914 328.584 43.9046 328.32 46.8855 327.782C57.1381 325.934 67.4734 320.69 80.5577 314.051C89.5158 309.507 99.4228 304.48 110.631 299.885C110.585 300.579 110.573 301.277 110.608 301.979C110.927 308.452 113.538 314.367 118.154 319.08C121.757 322.76 126.402 325.516 131.959 327.27C136.423 328.68 141.445 329.394 146.885 329.394H319.109C325.311 329.394 331.037 328.247 336.129 325.984C341.987 323.38 346.711 319.508 350.169 314.474C353.763 309.241 355.662 303.002 355.662 296.431C355.662 289.84 353.751 283.593 350.133 278.361C349.284 277.135 348.359 275.978 347.36 274.89C356.266 268.728 363.554 260.34 364.599 247.455C365.609 234.996 360.705 224.058 351.479 218.194Z" fill="white"/>
</svg>
