<svg width="910" height="221" viewBox="0 0 910 221" fill="none" xmlns="http://www.w3.org/2000/svg">
<path d="M319.134 81.9353L317.106 83.2806V116.366H281.618V40.5118H317.106V78.4477L360.198 40.5118H365.773L345.749 57.9952V59.0702L379.208 116.363H337.638L319.134 81.9353Z" fill="white"/>
<path d="M385.037 116.366H380.982L411.396 40.5118H447.391L477.3 116.366H439.029L411.904 49.1106L385.037 116.366Z" fill="white"/>
<path d="M523.188 40.5118L558.675 102.11V40.5118H562.225V116.366H525.213L489.726 54.7682V116.366H486.179V40.5118H523.188Z" fill="white"/>
<path d="M576.417 40.5118H645.111V44.2777H612.157V74.6718H637.245V78.4477H612.157V112.59H646.884V116.356H576.417V40.5118Z" fill="white"/>
<path d="M656.009 40.5118H705.945C728.251 40.5118 746.25 47.2367 746.25 65.2586C746.25 83.2806 728.508 90.0054 705.945 90.0054H691.753V116.636H656.009V40.5118ZM705.945 44.2777H691.753V85.9692H705.945V44.2777Z" fill="white"/>
<path d="M755.121 40.5118H823.815V44.2777H790.607V74.6718H815.709V78.4477H790.607V112.59H825.588V116.356H755.121V40.5118Z" fill="white"/>
<path d="M908.477 95.6528C908.477 112.597 894.285 117.441 872.739 117.441H856.768C840.8 117.441 828.633 114.214 828.633 93.7711H832.183C832.183 111.254 843.333 113.675 856.768 113.675C865.63 113.675 869.189 109.909 869.189 103.184C869.189 86.5079 828.124 88.9282 828.124 61.4931C828.124 44.5484 842.319 39.7052 863.865 39.7052H879.833C893.774 39.7052 905.698 42.9322 905.698 63.3744H902.402C902.402 45.8911 891.249 43.4708 880.096 43.4708C871.237 43.4708 867.675 47.2367 867.675 53.9616C867.421 70.3699 908.485 67.9496 908.485 95.6528" fill="white"/>
<path d="M314.064 193.563C314.064 193.831 314.064 193.831 313.81 194.101C313.802 194.241 313.744 194.372 313.653 194.471C313.559 194.57 313.433 194.63 313.302 194.64C312.648 194.861 311.959 194.952 311.274 194.908H307.215C306.707 194.908 305.947 194.64 305.185 194.64C304.679 194.64 304.174 194.101 303.665 193.565C303.297 192.983 302.871 192.442 302.397 191.952C301.892 190.877 301.132 190.07 300.369 188.724C299.607 187.712 298.927 186.633 298.342 185.497C298.005 184.81 297.579 184.177 297.074 183.616C296.631 182.852 296.12 182.131 295.554 181.463C295.3 181.195 295.046 180.657 294.792 180.389C294.603 179.835 294.249 179.362 293.78 179.043C293.526 178.504 293.018 178.236 292.512 177.698C292.004 177.43 291.75 177.159 291.244 177.159C290.979 177.205 290.722 177.296 290.485 177.427C290.23 177.695 290.23 177.966 289.976 178.234C289.976 178.502 289.722 179.041 289.722 179.309V192.493C289.722 192.784 289.633 193.067 289.468 193.299C289.468 193.567 289.214 194.106 288.959 194.106C288.751 194.404 288.485 194.654 288.18 194.839C287.874 195.024 287.537 195.14 287.186 195.181H283.637C283.098 195.125 282.578 194.941 282.116 194.642C281.803 194.336 281.545 193.972 281.355 193.567C281.178 193.241 281.09 192.869 281.101 192.493V153.216C281.132 152.932 281.219 152.657 281.355 152.41C281.399 152.129 281.485 151.856 281.609 151.603C281.778 151.265 282.035 150.985 282.349 150.794C282.663 150.604 283.022 150.512 283.383 150.528H286.677C287.292 150.617 287.888 150.798 288.454 151.067C288.768 151.373 289.025 151.737 289.214 152.142C289.391 152.468 289.479 152.84 289.468 153.216V163.975C289.468 164.243 289.722 164.782 289.722 165.05C289.976 165.318 289.976 165.589 290.23 165.857C290.33 165.959 290.45 166.036 290.582 166.082C290.713 166.129 290.853 166.143 290.993 166.125H291.499C291.753 166.125 292.007 165.857 292.261 165.857C293.229 165.099 294.083 164.191 294.794 163.166L297.076 159.939L300.118 155.892C301.069 154.581 302.083 153.324 303.16 152.127L303.922 151.32C304.174 151.052 304.428 150.781 304.682 150.781C305.313 150.445 306.004 150.261 306.71 150.242H311.525C311.911 150.301 312.265 150.49 312.539 150.782C312.813 151.072 312.99 151.449 313.045 151.856C313.036 152.355 312.856 152.833 312.539 153.201C312.194 153.802 311.765 154.346 311.271 154.815C309.497 157.235 307.975 159.387 306.202 161.808C304.428 164.228 302.651 166.38 301.132 168.801C300.864 169.097 300.686 169.472 300.624 169.875C300.624 170.414 300.369 170.682 300.369 170.95C300.418 171.694 300.589 172.422 300.878 173.102C302.397 175.523 304.428 178.214 306.707 181.701C308.986 185.189 311.522 188.426 313.804 192.192C314.059 192.192 314.059 192.46 314.059 192.73C314.059 193.269 314.059 193.269 314.059 193.537" fill="white"/>
<path d="M359.69 153.214V180.92C359.436 182.265 359.436 183.611 359.182 184.686C358.984 185.929 358.553 187.119 357.913 188.183C357.194 189.751 356.157 191.133 354.875 192.23C353.726 193.23 352.444 194.045 351.07 194.65C349.788 195.259 348.414 195.623 347.015 195.725C345.755 195.932 344.484 196.021 343.21 195.993C341.937 196.029 340.666 195.94 339.409 195.725C338.027 195.494 336.67 195.134 335.35 194.65C334.031 194.039 332.76 193.319 331.549 192.498C330.275 191.505 329.236 190.216 328.507 188.732C327.825 187.592 327.391 186.306 327.239 184.967C326.948 183.733 326.777 182.471 326.731 181.201V153.214C326.985 151.601 327.493 150.794 328.253 150.523C329.079 150.301 329.933 150.211 330.787 150.255H332.306C332.92 150.344 333.517 150.525 334.082 150.794C334.397 151.1 334.654 151.465 334.842 151.869C335.019 152.195 335.108 152.567 335.096 152.944V179.038C335.051 180.431 335.313 181.816 335.859 183.085C336.236 184.12 336.844 185.043 337.632 185.776C338.315 186.559 339.192 187.119 340.166 187.389C341.157 187.699 342.176 187.88 343.208 187.928C344.347 187.889 345.467 187.615 346.503 187.121C347.48 186.72 348.348 186.074 349.037 185.239C349.776 184.514 350.305 183.58 350.559 182.548C350.81 181.474 351.065 180.667 351.319 179.59C351.519 178.709 351.602 177.804 351.573 176.899V152.678C351.604 152.394 351.69 152.119 351.827 151.871C351.827 151.603 352.081 151.065 352.336 151.065C352.544 150.766 352.81 150.517 353.115 150.332C353.421 150.147 353.761 150.03 354.109 149.99H357.405C357.842 149.948 358.282 150.041 358.67 150.258C359.053 150.459 359.396 150.733 359.684 151.065C359.558 151.776 359.558 152.506 359.684 153.217" fill="white"/>
<path d="M398.727 191.142V192.217C398.598 192.768 398.43 193.308 398.218 193.83C397.933 194.162 397.587 194.436 397.207 194.637C396.89 194.8 396.545 194.892 396.193 194.905H374.901C374.647 194.905 374.647 194.905 374.139 194.637C373.885 194.637 373.379 194.369 373.128 194.369C372.876 194.369 372.619 193.83 372.365 193.294C372.182 192.873 372.094 192.412 372.111 191.949V153.216C372.142 152.932 372.228 152.657 372.365 152.409C372.428 152.006 372.605 151.631 372.873 151.335C373.042 150.997 373.299 150.716 373.613 150.526C373.927 150.336 374.284 150.244 374.647 150.26H378.197C378.817 150.313 379.42 150.496 379.971 150.799C380.285 151.105 380.542 151.469 380.733 151.873C380.91 152.2 380.996 152.572 380.988 152.948V184.956C381.019 185.396 381.15 185.821 381.37 186.196C381.59 186.57 381.893 186.883 382.253 187.108C382.847 187.567 383.549 187.846 384.281 187.915H396.196C396.465 187.948 396.724 188.039 396.959 188.183C397.339 188.25 397.693 188.438 397.97 188.722C398.232 188.905 398.458 189.142 398.632 189.419C398.807 189.697 398.927 190.008 398.984 190.335C398.729 190.335 398.729 190.874 398.729 191.142" fill="white"/>
<path d="M441.311 154.291V155.366C441.182 155.918 441.011 156.457 440.802 156.98C440.802 157.248 440.294 157.519 439.788 157.787C439.48 157.973 439.131 158.066 438.774 158.055H432.948C432.531 158.089 432.128 158.23 431.777 158.464C431.423 158.699 431.129 159.02 430.917 159.4C430.483 160.031 430.22 160.775 430.158 161.552V192.217C430.175 192.363 430.16 192.511 430.115 192.651C430.072 192.79 430 192.918 429.903 193.024C429.843 193.546 429.604 194.027 429.229 194.375C428.855 194.723 428.373 194.912 427.876 194.908H424.326C423.786 194.852 423.266 194.668 422.806 194.369C422.492 194.063 422.232 193.699 422.043 193.295C421.866 192.968 421.778 192.596 421.789 192.22V161.284C421.789 161.016 421.789 161.016 421.535 160.746V160.207C421.524 159.827 421.395 159.462 421.164 159.17C420.935 158.877 420.621 158.675 420.27 158.593C419.619 158.318 418.936 158.137 418.239 158.055H413.424C413.155 158.022 412.895 157.931 412.661 157.787C412.41 157.787 411.902 157.519 411.65 157.519C411.228 157.047 410.885 156.501 410.636 155.905V153.217C410.765 152.665 410.933 152.126 411.145 151.603C411.145 151.335 411.653 151.064 412.159 150.796C412.553 150.602 412.987 150.51 413.424 150.528H439.026C439.405 150.596 439.76 150.784 440.037 151.067C440.271 151.193 440.465 151.386 440.602 151.624C440.736 151.862 440.805 152.135 440.799 152.412C441.196 152.944 441.379 153.621 441.308 154.294" fill="white"/>
<path d="M481.11 139.767V140.842C480.981 141.393 480.81 141.933 480.601 142.456C480.601 142.724 480.093 142.994 479.587 143.262C479.282 143.449 478.931 143.542 478.576 143.53H462.605C462.337 143.498 462.08 143.406 461.846 143.262C461.549 143.049 461.189 142.954 460.832 142.994C460.409 142.522 460.066 141.976 459.818 141.381V138.692C459.946 138.141 460.118 137.601 460.326 137.079C460.326 136.811 460.835 136.54 461.34 136.272C461.737 136.077 462.171 135.985 462.605 136.004H479.336C479.719 136.071 480.07 136.259 480.35 136.543C480.584 136.669 480.778 136.862 480.913 137.1C481.047 137.338 481.115 137.611 481.113 137.888C481.113 138.695 481.113 139.234 481.113 139.77" fill="white"/>
<path d="M487.193 153.214V180.92C486.939 182.265 486.939 183.611 486.685 184.686C486.488 185.929 486.056 187.119 485.417 188.183C484.697 189.751 483.657 191.132 482.375 192.23C481.227 193.23 479.947 194.045 478.574 194.65C477.291 195.259 475.917 195.623 474.515 195.725C473.258 195.932 471.985 196.021 470.714 195.993C469.44 196.029 468.166 195.94 466.909 195.725C465.53 195.494 464.173 195.134 462.854 194.65C461.534 194.039 460.263 193.319 459.049 192.498C457.779 191.505 456.736 190.216 456.008 188.732C455.325 187.592 454.894 186.306 454.743 184.967C454.448 183.733 454.28 182.471 454.234 181.201V153.214C454.488 151.601 454.997 150.794 455.754 150.523C456.582 150.301 457.436 150.211 458.29 150.255H459.809C460.423 150.344 461.02 150.525 461.583 150.794C461.897 151.1 462.157 151.465 462.345 151.869C462.522 152.195 462.611 152.567 462.6 152.944V179.038C462.554 180.431 462.814 181.816 463.362 183.085C463.739 184.12 464.347 185.043 465.136 185.776C465.815 186.559 466.698 187.119 467.672 187.389C468.66 187.699 469.683 187.88 470.714 187.928C471.85 187.889 472.97 187.615 474.01 187.121C474.983 186.72 475.855 186.074 476.543 185.239C477.283 184.514 477.808 183.58 478.062 182.548C478.316 181.474 478.571 180.667 478.825 179.59C478.825 178.515 479.079 177.708 479.079 176.899V152.678C479.11 152.394 479.196 152.119 479.333 151.871C479.585 151.603 479.585 151.065 479.839 151.065C480.05 150.766 480.316 150.517 480.621 150.332C480.927 150.147 481.264 150.03 481.615 149.99H484.908C485.348 149.948 485.788 150.041 486.176 150.258C486.559 150.459 486.902 150.733 487.19 151.065C487.062 151.776 487.062 152.506 487.19 153.217" fill="white"/>
<path d="M530.537 193.295C530.534 193.502 530.485 193.707 530.4 193.893C530.311 194.079 530.185 194.241 530.031 194.369C529.683 194.706 529.234 194.898 528.763 194.908C528.255 194.908 527.749 195.176 527.244 195.176H523.948C523.345 195.22 522.74 195.128 522.174 194.908C521.666 194.908 521.412 194.64 520.906 194.101L520.398 193.563L519.889 193.024C518.878 190.872 517.862 188.978 516.851 186.838C515.837 184.699 514.566 182.539 513.555 180.381L513.046 179.843C512.792 179.574 512.538 179.304 512.284 179.304C511.735 178.766 511.007 178.476 510.256 178.497C509.716 178.553 509.196 178.738 508.736 179.036C508.06 179.548 507.605 180.322 507.468 181.188C507.468 181.456 507.214 181.456 507.214 181.727V192.761C507.217 193.052 507.126 193.335 506.96 193.568C506.96 193.836 506.706 194.375 506.454 194.375C506.243 194.673 505.978 194.922 505.672 195.107C505.366 195.292 505.029 195.409 504.678 195.449H501.131C500.591 195.393 500.071 195.209 499.608 194.911C499.294 194.604 499.037 194.24 498.846 193.836C498.663 193.415 498.577 192.954 498.595 192.49V153.217C498.583 152.864 498.649 152.513 498.78 152.188C498.912 151.863 499.106 151.572 499.354 151.335C499.905 150.797 500.634 150.507 501.382 150.529H514.554C518.456 150.434 522.251 151.876 525.202 154.575C527.407 157.255 528.583 160.71 528.498 164.259C528.632 166.202 528.283 168.149 527.484 169.906C526.961 171.163 526.278 172.34 525.456 173.404C524.845 174.187 524.165 174.907 523.428 175.556C523.114 175.868 522.865 176.243 522.691 176.658C522.517 177.074 522.423 177.522 522.414 177.976V178.783C522.414 179.051 522.668 179.59 522.668 179.858C522.991 180.718 523.417 181.531 523.936 182.278L525.456 185.505C525.964 186.58 526.724 187.657 527.229 189.003C527.738 190.078 528.498 191.155 529.006 192.23C529.143 192.375 529.232 192.565 529.26 192.769C530.525 193.037 530.525 193.307 530.525 193.307L530.537 193.295ZM520.392 164.243C520.412 163.2 520.146 162.173 519.629 161.284C519.141 160.462 518.436 159.807 517.602 159.403C516.733 158.885 515.794 158.522 514.814 158.328C513.815 158.106 512.792 158.016 511.772 158.06C510.899 158.022 510.03 158.206 509.239 158.599C508.731 159.137 508.225 159.405 507.971 159.944C507.717 160.483 507.717 161.29 507.463 161.828V166.401C507.48 167.063 507.654 167.711 507.971 168.283C508.257 168.855 508.699 169.323 509.239 169.628C510.039 169.989 510.901 170.173 511.772 170.166C513.049 170.085 514.323 169.905 515.574 169.628C516.288 169.493 516.97 169.21 517.579 168.794C518.19 168.379 518.713 167.839 519.124 167.208C519.347 167.005 519.527 166.759 519.658 166.482C519.789 166.205 519.867 165.903 519.887 165.594C520.392 165.326 520.392 164.787 520.392 164.249" fill="white"/>
<path d="M578.444 192.756C578.444 193.563 578.444 193.831 577.936 194.101C577.648 194.433 577.305 194.706 576.922 194.908C576.417 194.908 576.162 195.176 575.657 195.176H572.864C572.244 195.123 571.641 194.94 571.09 194.637C570.636 194.425 570.276 194.042 570.076 193.563C569.822 193.024 569.568 192.756 569.568 192.217C569.314 191.678 569.314 191.41 569.062 190.872C569.062 190.333 568.808 190.065 568.808 189.797C568.525 189.306 568.351 188.754 568.3 188.183C568.04 187.524 567.597 186.962 567.032 186.57C566.777 186.57 566.526 186.302 566.021 186.031C565.624 185.836 565.189 185.744 564.752 185.763H556.13C555.404 185.866 554.713 186.142 554.102 186.57C553.594 187.108 553.342 187.644 552.837 188.183C552.583 188.99 552.329 189.529 552.074 190.335C551.866 190.983 551.612 191.612 551.312 192.217C551.106 192.458 550.938 192.73 550.806 193.024C550.606 193.503 550.246 193.887 549.792 194.099C549.255 194.436 548.644 194.621 548.019 194.637H545.231C544.791 194.708 544.343 194.613 543.963 194.369C543.455 194.101 543.201 194.101 542.949 193.563C542.635 193.194 542.458 192.718 542.449 192.222C542.449 191.954 542.704 191.415 542.958 190.07C543.212 188.995 543.718 187.65 544.223 186.023C544.729 184.397 545.237 183.064 545.745 181.451C546.034 180.236 546.459 179.062 547.011 177.953C547.425 176.906 547.765 175.827 548.024 174.726C548.441 173.588 548.781 172.419 549.038 171.228C549.538 169.908 549.961 168.557 550.304 167.182L551.826 162.341C552.334 160.728 552.837 159.114 553.345 157.23C553.854 155.617 554.359 154.003 554.868 152.658C554.862 152.381 554.93 152.107 555.065 151.87C555.199 151.632 555.396 151.438 555.627 151.312C555.867 150.899 556.201 150.558 556.601 150.323C557.001 150.087 557.452 149.964 557.909 149.967H560.194C561.214 149.866 562.242 149.957 563.233 150.235C563.89 150.454 564.435 150.937 564.755 151.58C565.187 152.339 565.526 153.152 565.769 154.001C566.02 154.807 566.529 156.153 567.034 157.766C567.366 158.544 567.62 159.355 567.797 160.187C568.051 161.261 568.557 162.607 569.062 164.233C569.571 165.579 570.076 167.192 570.584 168.806C571.084 170.211 571.507 171.647 571.85 173.105C572.104 173.912 572.358 174.989 572.864 176.332C573.369 177.675 573.878 179.291 574.386 180.905C574.891 182.518 575.651 184.402 576.16 186.284C576.668 188.166 577.425 190.05 577.933 191.663V192.738L578.444 192.756ZM564.504 175.277C564.524 174.727 564.438 174.178 564.25 173.664C563.933 172.899 563.761 172.078 563.741 171.244C563.53 170.51 563.276 169.792 562.982 169.092C562.727 168.285 562.473 168.017 562.473 167.746C562.308 167.463 562.085 167.22 561.822 167.035C561.559 166.85 561.262 166.726 560.951 166.671C560.445 166.671 560.191 166.939 559.686 167.21C559.432 167.478 559.177 168.017 558.923 168.285C558.923 168.553 558.669 168.823 558.415 169.36C558.161 169.896 557.909 170.705 557.655 171.244C557.367 171.924 557.195 172.653 557.147 173.396C556.975 173.914 556.89 174.46 556.892 175.009C556.892 176.355 557.147 177.162 557.906 177.43C558.803 177.762 559.743 177.944 560.694 177.968C561.559 177.919 562.41 177.737 563.227 177.43C563.99 177.43 564.493 176.623 564.493 175.277" fill="white"/>
<path d="M622.045 182.265C622.068 184.575 621.637 186.865 620.777 188.99C620.034 190.692 618.903 192.169 617.481 193.29C616.079 194.433 614.419 195.175 612.666 195.442C610.838 195.887 608.961 196.068 607.088 195.98C605.731 196.017 604.375 195.928 603.032 195.712C601.527 195.552 600.065 195.095 598.72 194.367C597.229 193.73 595.855 192.819 594.664 191.676C593.339 190.358 592.373 188.685 591.876 186.835C591.622 186.567 591.622 186.297 591.622 185.761C591.622 185.492 591.368 184.954 591.368 184.686C591.26 184.243 591.174 183.794 591.114 183.34V182.265C591.08 181.678 591.262 181.1 591.622 180.652C591.876 180.384 592.385 180.113 592.636 179.845C593.142 179.845 593.396 179.577 593.901 179.577H596.943C597.414 179.588 597.866 179.779 598.211 180.116C598.68 180.435 599.034 180.907 599.222 181.461C599.476 182 599.985 182.807 600.49 183.882C600.916 184.735 601.521 185.472 602.264 186.034C602.898 186.751 603.678 187.303 604.546 187.647C604.8 187.647 604.8 187.647 605.054 187.915C605.191 187.897 605.331 187.911 605.466 187.958C605.597 188.004 605.717 188.081 605.817 188.183C606.174 188.143 606.534 188.238 606.831 188.452H607.591C608.193 188.478 608.796 188.387 609.367 188.183C610.127 187.915 610.632 187.645 611.395 187.377C612.049 187.158 612.597 186.674 612.914 186.031C613.423 185.445 613.697 184.673 613.677 183.879C613.654 183.093 613.385 182.336 612.914 181.727C612.363 180.963 611.675 180.324 610.886 179.845C609.618 179.038 608.099 178.5 606.577 177.693C605.009 177.088 603.483 176.369 602.013 175.54C600.493 174.734 599.225 173.927 597.957 173.12C596.789 172.404 595.778 171.435 594.992 170.276C594.204 169.116 593.661 167.794 593.396 166.396C593.193 165.242 593.107 164.07 593.142 162.898C593.113 160.761 593.547 158.646 594.407 156.712C595.221 155.131 596.343 153.751 597.703 152.665C599.011 151.525 600.587 150.781 602.264 150.513C603.909 149.982 605.617 149.711 607.333 149.706C608.439 149.672 609.544 149.762 610.629 149.974C611.843 150.208 613.034 150.568 614.179 151.049C615.365 151.606 616.473 152.33 617.475 153.201C618.595 154.18 619.54 155.365 620.263 156.699C620.703 157.453 621.045 158.267 621.274 159.12C621.468 159.818 621.554 160.545 621.528 161.272C621.517 161.851 621.34 162.413 621.023 162.885C620.768 163.153 620.26 163.424 620.009 163.692C619.62 163.909 619.18 164.002 618.741 163.96H616.713C616.193 164.003 615.67 163.911 615.193 163.692C614.939 163.692 614.685 163.424 614.431 163.153C613.977 162.941 613.617 162.558 613.417 162.079C613.28 161.933 613.191 161.744 613.163 161.54C613.163 161.272 612.908 161.272 612.908 161.001C612.343 159.785 611.466 158.76 610.375 158.042C609.436 157.524 608.396 157.247 607.333 157.235C606.814 157.192 606.294 157.284 605.814 157.503C605.306 157.771 604.546 158.042 604.04 158.31C603.501 158.615 603.058 159.084 602.772 159.656C602.455 160.227 602.281 160.875 602.264 161.537C602.241 162.037 602.318 162.535 602.492 163C602.667 163.464 602.935 163.883 603.278 164.228C604.04 164.767 604.797 165.303 606.065 166.11C607.208 166.745 608.393 167.284 609.615 167.723L613.417 169.337C616.481 170.273 619.215 172.144 621.274 174.716C621.274 176.6 622.036 179.015 622.036 182.248" fill="white"/>
<path d="M694.795 181.191C694.709 182.279 694.538 183.358 694.286 184.418C694.144 185.345 693.886 186.25 693.524 187.108C692.95 188.782 692.09 190.332 690.99 191.681C690.091 192.821 688.965 193.74 687.695 194.372C686.469 194.941 685.195 195.391 683.893 195.717C682.636 195.94 681.363 196.03 680.089 195.986C678.389 195.939 676.693 195.759 675.019 195.447C673.326 195.104 671.701 194.468 670.204 193.565C668.542 192.629 667.077 191.348 665.894 189.799C664.538 187.999 663.429 186.007 662.598 183.881C662.027 182.131 661.602 180.331 661.33 178.502C661.133 176.717 661.047 174.92 661.076 173.123C661.107 169.94 661.533 166.775 662.344 163.71C663.058 160.982 664.263 158.425 665.894 156.178C667.411 154.064 669.419 152.397 671.721 151.337C674.291 150.212 677.053 149.662 679.832 149.724C681.023 149.688 682.211 149.778 683.382 149.992C684.679 150.224 685.952 150.584 687.186 151.067C688.431 151.621 689.554 152.445 690.479 153.487C691.607 154.612 692.476 155.997 693.015 157.534C693.267 158.341 693.521 159.418 693.775 160.225C694.015 161.013 694.184 161.824 694.283 162.645C694.283 163.184 694.029 163.72 694.029 164.258L693.267 165.065C692.97 165.278 692.613 165.373 692.256 165.333H691.253C690.305 165.309 689.362 165.127 688.466 164.795C687.706 164.525 686.946 163.449 686.184 161.568C685.658 160.634 684.97 159.813 684.156 159.147C683.308 158.528 682.365 158.073 681.368 157.802H680.1C678.838 157.742 677.593 158.12 676.553 158.877C675.508 159.629 674.568 160.535 673.766 161.568C672.94 162.727 672.258 163.993 671.735 165.333C671.281 166.646 670.941 168.001 670.724 169.38V173.146C670.69 174.407 670.775 175.668 670.978 176.911C671.232 178.257 671.484 179.331 671.738 180.677C672.229 181.896 672.823 183.067 673.514 184.175C674.242 185.352 675.191 186.359 676.302 187.134C676.893 187.649 677.584 188.016 678.33 188.209C679.069 188.43 679.84 188.521 680.612 188.477C681.931 188.373 683.222 188.008 684.413 187.402C685.81 186.429 686.875 185.011 687.455 183.355C687.709 182.757 687.88 182.123 687.963 181.474C687.963 180.935 688.471 180.399 688.977 179.592C689.165 179.357 689.397 179.165 689.66 179.026C689.919 178.887 690.205 178.806 690.496 178.785H692.273C693.15 178.676 694.038 178.864 694.806 179.324C694.552 179.056 694.806 179.863 694.806 181.208" fill="white"/>
<path d="M734.337 191.142V192.217C734.208 192.768 734.04 193.308 733.829 193.831C733.54 194.162 733.197 194.436 732.815 194.637C732.5 194.801 732.155 194.892 731.804 194.905H709.749C709.495 194.905 709.495 194.905 708.986 194.637C708.732 194.637 708.227 194.369 707.975 194.369C707.724 194.369 707.467 193.831 707.213 193.294C707.03 192.873 706.942 192.412 706.959 191.949V153.216C706.99 152.932 707.076 152.658 707.213 152.41C707.213 152.142 707.467 151.871 707.467 151.335C707.467 151.067 707.975 150.796 708.481 150.528C708.875 150.334 709.309 150.242 709.746 150.26H731.541C731.792 150.26 732.046 150.528 732.552 150.799C732.966 151.178 733.309 151.634 733.566 152.144C733.771 152.652 733.86 153.206 733.82 153.758V154.833C733.691 155.384 733.523 155.923 733.312 156.446C733.023 156.778 732.68 157.051 732.298 157.253C731.904 157.448 731.469 157.539 731.032 157.521H718.863C718.509 157.51 718.157 157.602 717.852 157.789C717.549 157.75 717.246 157.805 716.975 157.948C716.704 158.092 716.481 158.317 716.329 158.596C716.095 158.722 715.901 158.915 715.767 159.153C715.633 159.391 715.564 159.664 715.57 159.941C715.361 160.45 715.276 161.003 715.316 161.555V164.782C715.316 165.05 715.57 165.589 715.57 165.857C715.57 166.396 716.075 166.664 716.329 167.202C716.584 167.202 716.838 167.47 717.343 167.741C717.74 167.935 718.174 168.027 718.609 168.009H729.005C729.273 168.042 729.53 168.133 729.764 168.277C730.019 168.277 730.527 168.545 730.778 168.545C731.201 169.017 731.544 169.563 731.792 170.159C731.792 170.697 732.044 171.234 732.044 171.772V172.847C731.955 173.409 731.784 173.953 731.538 174.461C731.25 174.792 730.907 175.066 730.524 175.267C730.216 175.454 729.867 175.547 729.51 175.536H718.611C718.357 175.536 718.357 175.536 718.106 175.804C717.435 175.996 716.826 176.366 716.329 176.878C715.821 177.417 715.57 177.685 715.57 178.224C715.57 178.763 715.316 179.299 715.316 179.837V184.137C715.316 184.405 715.57 184.944 715.57 185.212C715.57 185.75 716.075 186.018 716.329 186.286L717.343 186.825C717.74 187.02 718.174 187.112 718.609 187.093H731.541C731.809 187.126 732.069 187.217 732.303 187.361C732.686 187.429 733.037 187.616 733.317 187.9C733.58 188.06 733.791 188.298 733.928 188.585C734.063 188.872 734.117 189.195 734.077 189.514C734.251 190.032 734.337 190.578 734.331 191.127" fill="white"/>
<path d="M780.217 192.217C780.217 192.485 780.217 192.485 779.963 193.024C779.708 193.292 779.708 193.831 779.454 193.831C779.286 194.169 779.029 194.449 778.715 194.639C778.4 194.829 778.043 194.922 777.681 194.905H774.385C773.865 194.948 773.342 194.856 772.865 194.637C772.326 194.581 771.806 194.397 771.343 194.099C770.803 193.794 770.363 193.326 770.078 192.753C768.047 188.988 766.019 185.49 763.994 181.995C761.969 178.499 759.939 174.731 757.911 171.236L756.897 170.161C756.392 169.893 756.137 169.623 755.632 169.623C755.378 169.623 754.869 169.623 754.869 170.161C754.615 170.429 754.615 170.7 754.361 171.236C754.161 171.552 754.072 171.932 754.109 172.311V191.679C754.109 191.947 754.11 191.947 753.855 192.485C753.795 193.007 753.555 193.488 753.181 193.835C752.807 194.182 752.324 194.371 751.825 194.367H748.786C748.246 194.311 747.726 194.127 747.263 193.828C746.949 193.522 746.692 193.158 746.504 192.753C746.327 192.427 746.238 192.055 746.25 191.679V152.407C746.25 152.139 746.504 151.869 746.755 151.601C746.978 151.251 747.281 150.969 747.638 150.781C747.992 150.593 748.389 150.505 748.786 150.526H753.601C754.138 150.582 754.661 150.766 755.121 151.064C755.643 151.266 756.089 151.644 756.389 152.139C757.148 153.485 758.162 155.098 758.922 156.712C759.862 158.267 760.71 159.884 761.455 161.552C761.964 162.627 762.469 163.434 762.978 164.511C763.483 165.589 764.243 166.664 764.751 168.009L765.514 169.623C765.759 170.218 766.102 170.764 766.525 171.236C766.779 171.775 767.033 172.043 767.287 172.582C767.542 173.12 767.796 173.388 768.047 173.927C768.298 174.466 768.807 174.734 769.058 175.002C769.355 175.215 769.715 175.31 770.072 175.27C770.209 175.288 770.349 175.274 770.48 175.227C770.615 175.181 770.735 175.104 770.835 175.002C771.089 174.734 771.089 174.463 771.34 173.927C771.34 173.659 771.594 173.12 771.594 172.852V153.217C771.626 152.932 771.714 152.658 771.848 152.41C771.848 152.142 772.103 151.603 772.357 151.603C772.565 151.305 772.834 151.055 773.139 150.871C773.442 150.686 773.782 150.569 774.131 150.528H777.172C777.712 150.585 778.232 150.769 778.694 151.067C779.006 151.373 779.266 151.738 779.454 152.142C779.631 152.468 779.72 152.841 779.708 153.217V192.217H780.217Z" fill="white"/>
<path d="M823.055 154.291V155.366C822.926 155.918 822.758 156.457 822.547 156.98C822.547 157.248 822.041 157.519 821.536 157.787C821.219 157.95 820.873 158.041 820.522 158.055H814.69C814.275 158.089 813.873 158.23 813.519 158.464C813.167 158.699 812.873 159.02 812.662 159.4C812.228 160.032 811.965 160.776 811.902 161.552V192.217C811.919 192.363 811.905 192.511 811.862 192.651C811.816 192.79 811.745 192.918 811.648 193.024C811.588 193.546 811.348 194.027 810.974 194.375C810.6 194.723 810.12 194.912 809.62 194.908H806.07C805.533 194.852 805.013 194.668 804.551 194.369C804.236 194.063 803.979 193.699 803.788 193.295C803.611 192.968 803.525 192.596 803.534 192.22V161.284C803.534 161.016 803.534 161.016 803.282 160.746V160.207C803.271 159.827 803.14 159.462 802.911 159.17C802.683 158.877 802.366 158.675 802.014 158.593C801.363 158.318 800.681 158.137 799.987 158.055H795.171C794.903 158.022 794.646 157.931 794.411 157.787C794.157 157.787 793.652 157.519 793.398 157.519C792.975 157.046 792.632 156.501 792.384 155.905C792.344 155.36 792.258 154.821 792.13 154.291V153.217C792.258 152.665 792.429 152.126 792.638 151.603C792.926 151.271 793.269 150.998 793.652 150.796C794.049 150.602 794.483 150.51 794.92 150.528H820.519C820.902 150.596 821.253 150.784 821.533 151.067C821.764 151.193 821.961 151.386 822.095 151.624C822.23 151.862 822.298 152.135 822.292 152.412C822.755 152.921 823.026 153.588 823.055 154.291Z" fill="white"/>
<path d="M866.401 193.295C866.399 193.502 866.35 193.707 866.261 193.893C866.173 194.079 866.047 194.241 865.893 194.369C865.547 194.706 865.096 194.897 864.628 194.908C864.119 194.908 863.614 195.176 863.105 195.176H859.81C859.207 195.22 858.604 195.128 858.036 194.908C857.528 194.908 857.273 194.64 856.768 194.101L856.262 193.563L855.754 193.024C854.74 190.872 853.726 188.978 852.712 186.838C851.698 184.699 850.43 182.539 849.416 180.381C849.162 180.381 849.162 180.113 848.908 179.843C848.657 179.572 848.402 179.304 848.148 179.304C847.597 178.766 846.869 178.476 846.12 178.497C845.581 178.553 845.061 178.737 844.598 179.036C843.924 179.548 843.467 180.322 843.333 181.188C843.333 181.456 843.079 181.456 843.079 181.727V192.761C843.079 193.052 842.99 193.335 842.825 193.568C842.825 193.836 842.57 194.375 842.316 194.375C842.108 194.673 841.839 194.922 841.536 195.107C841.231 195.292 840.891 195.408 840.543 195.449H836.993C836.453 195.393 835.933 195.209 835.473 194.911C835.159 194.604 834.899 194.24 834.711 193.836C834.528 193.415 834.439 192.954 834.456 192.49V153.217C834.448 152.864 834.511 152.513 834.642 152.188C834.773 151.863 834.97 151.572 835.219 151.335C835.77 150.797 836.496 150.507 837.247 150.529H850.419C854.32 150.434 858.116 151.876 861.066 154.575C863.271 157.255 864.445 160.71 864.359 164.259C864.496 166.202 864.145 168.149 863.348 169.906C862.823 171.163 862.14 172.34 861.32 173.404C860.709 174.187 860.03 174.907 859.29 175.556C858.978 175.868 858.727 176.243 858.553 176.658C858.379 177.074 858.284 177.522 858.279 177.976V178.783C858.279 179.051 858.533 179.59 858.533 179.858C858.856 180.718 859.281 181.531 859.798 182.278L861.32 185.505C861.826 186.58 862.586 187.657 863.094 189.003C863.602 190.078 864.359 191.155 864.868 192.23C865.008 192.375 865.096 192.565 865.122 192.769C866.39 193.037 866.39 193.307 866.39 193.307L866.401 193.295ZM856.254 164.243C856.274 163.2 856.011 162.173 855.494 161.284C855.006 160.461 854.3 159.807 853.463 159.403C852.598 158.885 851.656 158.522 850.676 158.328C849.676 158.105 848.657 158.015 847.634 158.06C846.76 158.021 845.892 158.206 845.098 158.599C844.592 159.137 844.087 159.405 843.833 159.944C843.547 160.531 843.376 161.171 843.324 161.828V166.401C843.339 167.063 843.516 167.711 843.833 168.282C844.118 168.855 844.558 169.323 845.098 169.628C845.901 169.99 846.763 170.173 847.634 170.166C848.914 170.085 850.185 169.905 851.438 169.628C852.153 169.493 852.835 169.21 853.443 168.794C854.052 168.378 854.577 167.839 854.989 167.207C855.209 167.005 855.391 166.759 855.523 166.482C855.654 166.205 855.731 165.903 855.748 165.594C856.257 165.326 856.257 164.787 856.257 164.249" fill="white"/>
<path d="M909.999 182.265C910.022 184.575 909.591 186.865 908.731 188.99C907.991 190.692 906.858 192.17 905.438 193.29C904.033 194.433 902.373 195.175 900.62 195.442C898.792 195.887 896.916 196.068 895.042 195.98C893.685 196.017 892.329 195.928 890.986 195.712C889.481 195.552 888.022 195.095 886.677 194.367C885.229 193.792 883.926 192.871 882.872 191.676C881.464 190.431 880.485 188.73 880.085 186.835C880.085 186.567 879.831 186.297 879.831 185.761C879.831 185.492 879.576 184.954 879.576 184.686C879.348 184.282 879.256 183.806 879.322 183.34V182.265C879.288 181.678 879.471 181.1 879.831 180.652C880.085 180.384 880.593 180.113 880.844 179.845C881.353 179.845 881.604 179.577 882.113 179.577H884.9C885.368 179.588 885.82 179.779 886.165 180.116C886.634 180.435 886.991 180.907 887.179 181.461C887.611 182.22 887.95 183.033 888.19 183.882C888.616 184.735 889.224 185.472 889.967 186.034C890.598 186.751 891.38 187.303 892.249 187.647C892.503 187.647 892.757 187.647 892.757 187.915C892.894 187.897 893.034 187.911 893.166 187.958C893.297 188.004 893.417 188.081 893.517 188.183C893.874 188.143 894.234 188.238 894.531 188.452H895.293C895.893 188.478 896.496 188.387 897.067 188.183C897.83 187.915 898.335 187.645 899.095 187.377C899.752 187.158 900.297 186.674 900.617 186.031C901.123 185.445 901.397 184.673 901.374 183.879C901.351 183.093 901.085 182.337 900.617 181.727C900.066 180.963 899.375 180.324 898.586 179.845C897.321 179.038 895.799 178.5 894.277 177.693C892.711 177.088 891.186 176.369 889.715 175.54C888.193 174.734 886.928 173.927 885.657 173.12C884.489 172.404 883.481 171.435 882.692 170.276C881.907 169.116 881.361 167.794 881.096 166.396C880.896 165.242 880.81 164.07 880.842 162.898C880.813 160.761 881.247 158.646 882.11 156.712C882.921 155.131 884.046 153.751 885.403 152.665C886.711 151.525 888.29 150.781 889.967 150.513C891.609 149.982 893.317 149.711 895.036 149.706C896.142 149.672 897.244 149.762 898.332 149.974C899.546 150.208 900.734 150.568 901.879 151.049C903.065 151.606 904.173 152.33 905.175 153.201C906.298 154.18 907.243 155.365 907.963 156.699C908.406 157.453 908.745 158.267 908.977 159.12C909.171 159.818 909.257 160.545 909.231 161.272C909.217 161.851 909.04 162.413 908.723 162.885C908.468 163.153 907.96 163.424 907.709 163.692C907.329 163.936 906.88 164.03 906.443 163.96H904.413C903.976 164.03 903.527 163.936 903.148 163.692C902.893 163.692 902.639 163.424 902.134 163.153C901.682 162.941 901.32 162.558 901.123 162.079C900.868 162.079 900.868 161.81 900.868 161.54C900.868 161.269 900.614 161.272 900.614 161.001C900.046 159.785 899.169 158.76 898.081 158.042C897.141 157.524 896.099 157.247 895.039 157.235C894.519 157.192 893.997 157.284 893.517 157.503C893.011 157.771 892.252 158.042 891.743 158.31C891.203 158.615 890.761 159.083 890.475 159.656C890.158 160.227 889.984 160.875 889.97 161.537C889.944 162.037 890.021 162.535 890.195 163C890.369 163.464 890.638 163.883 890.981 164.228C891.743 164.767 892.503 165.303 893.768 166.11C894.782 166.649 895.799 167.185 897.064 167.723L900.868 169.337C903.93 170.273 906.666 172.144 908.725 174.716C909.505 177.144 909.934 179.684 909.991 182.248" fill="white"/>
<path d="M496.301 125.943L508.125 113.397L511.898 117.38L500.074 129.927L496.301 125.943Z" fill="white"/>
<path d="M0 133.042C0 133.31 0 133.581 0.25385 133.581L47.8962 220.461L48.1501 220.729C48.2818 220.883 48.4628 220.978 48.6579 220.998H169.326C169.359 221 169.393 220.994 169.425 220.982C169.457 220.969 169.486 220.949 169.51 220.924C169.534 220.899 169.552 220.868 169.564 220.835C169.576 220.801 169.581 220.765 169.579 220.729L169.833 220.461L217.49 133.581V132.774V132.506L109.757 1.24074C109.757 0.972656 109.505 0.972656 109.252 0.972656H108.485C108.246 0.972656 108.246 1.24074 107.982 1.24074L0.25385 132.23V132.498C0 132.498 0 132.767 0 133.037V133.042ZM55.0067 179.572L130.544 179.304L49.9366 217.773L55.0067 179.572ZM10.6474 139.767L78.0711 177.157H54.4989L10.6474 139.767ZM147.528 139.767L134.852 176.618H82.8847L70.2135 140.038L108.998 99.6893L147.528 139.767ZM133.839 180.116L127.756 197.869L60.3301 215.623L133.839 180.116ZM148.795 143.533L167.299 217.503L130.039 198.138L148.795 143.533ZM113.306 100.764L213.938 133.313L169.833 159.402L113.306 100.764ZM108.246 96.9984L70.9752 136.001L108.998 5.81326L129.277 74.9425L108.246 96.9984ZM68.439 136.277L58.3017 108.027L104.174 14.6902L68.439 136.277ZM67.426 140.043C67.426 140.581 67.426 140.85 67.6799 141.118L79.8479 175.278L3.80296 133.042L56.2782 109.373L67.426 140.043ZM170.846 161.568L213.684 136.024L170.339 215.373L170.846 161.568ZM131.557 74.6741L112.039 7.69741L210.897 127.663L131.557 74.6741Z" fill="white"/>
</svg>
