<svg width="503" height="72" viewBox="0 0 503 72" fill="none" xmlns="http://www.w3.org/2000/svg">
<path d="M133.987 21.4015C117.294 20.6932 102.416 27.8291 100.414 36.962C98.4471 45.9333 109.727 54.1703 126.479 54.8787C143.176 55.5869 158.051 48.4541 160.051 39.3213C162.02 30.3525 150.746 22.1124 133.987 21.4015ZM131.727 30.9645C138.208 31.238 143.424 34.5088 142.495 38.7353C141.599 42.8109 135.288 45.5921 128.742 45.3161C122.259 45.0427 117.043 41.7744 117.972 37.5427C118.867 33.4645 125.178 30.6885 131.727 30.9645ZM181.172 36.8525C182.716 32.6181 187.375 30.6599 191.466 30.6599C195.514 30.6599 199.396 33.0375 197.892 37.1651L191.968 53.4047H207.995L214.011 36.9099C217.134 28.3421 210.374 21.24 195.235 21.24C178.386 21.24 168.831 26.7536 165.156 36.8396L159.116 53.4047H175.138L181.172 36.8525ZM73.486 53.4047H90.0817L101.299 22.6307H84.7004L73.486 53.4047ZM342.003 33.8239L335.056 53.4047H351.082L356.424 38.3396C357.739 34.5219 358.852 31.6572 363.534 31.6572H374.788L377.952 22.6307H357.203C350.258 22.6307 344.672 26.0817 342.003 33.8239ZM329.223 25.6339C325.083 23.4172 318.259 21.6567 311.579 21.3833C297.75 20.8156 281.967 25.54 278.822 36.6937C277.01 43.1181 283.231 51.7848 299.424 54.2511C307.532 55.4828 320.407 55.1703 329.674 52.1156L333.136 42.5896C314.347 49.0453 289.774 47.1729 290.6 37.5011C299.687 43.3317 312.958 42.7744 322.779 41.1677C339.802 38.3839 339.556 31.1547 329.223 25.6339ZM297.235 32.0686L296.56 31.7719C300.482 30.2093 304.734 29.3629 308.955 29.3629C311.523 29.3629 317.223 29.8031 319.626 31.1703C320.21 31.5088 320.747 32.0192 320.458 32.6677C319.402 35.0531 303.783 34.9254 297.235 32.0686ZM268.544 25.6339C264.406 23.4172 257.583 21.6567 250.91 21.3833C237.072 20.8156 221.287 25.54 218.146 36.6937C216.33 43.1181 222.558 51.7848 238.747 54.2511C246.851 55.4828 259.736 55.1703 269.002 52.1156L272.46 42.5896C253.666 49.0453 229.1 47.1729 229.922 37.5011C239.018 43.3317 252.287 42.7744 262.104 41.1677C279.12 38.3839 278.88 31.1547 268.544 25.6339ZM236.558 32.0686L235.888 31.7719C239.804 30.2093 244.056 29.3629 248.282 29.3629C250.847 29.3629 256.547 29.8031 258.951 31.1703C259.538 31.5088 260.07 32.0192 259.784 32.6677C258.719 35.0531 243.104 34.9254 236.558 32.0686ZM63.1969 19.9953C61.7969 23.9276 53.0183 28.0348 31.4469 23.162L34.2475 35.8968C55.8281 39.8161 68.612 36.5973 75.9141 28.9281C81.3257 23.2479 82.3831 15.888 77.9401 10.2629C73.2396 4.31452 62.8229 -8.93312e-06 49.6745 -8.93312e-06C30.8568 -8.93312e-06 17.4532 5.44532 10.0095 25.8995L0 53.402H17.5104L27.4636 25.5869C31.56 14.1511 40.1448 12.2552 49.6709 12.2552C59.6641 12.2552 64.4871 16.3672 63.1969 19.9953Z" fill="white"/>
<path d="M451.698 28.5192C450.378 32.1416 447.894 36.5729 443.627 39.5494C433.563 46.5817 421.448 45.8344 421.448 45.8344C421.448 45.8344 418.064 45.6442 419.44 41.85C429.85 13.1494 428.932 15.8177 429.591 14.2948C430.643 11.8572 433.324 12.1598 433.324 12.1598L436.418 12.1C442.782 12.1 447.184 12.4874 450.076 15.8968C452.654 18.9536 453.092 24.6806 451.698 28.5192ZM464.979 10.114C458.44 5.07184 449.102 4.6421 438.042 4.6421H416.143L398.42 53.389H423.342C434.167 53.389 444.066 51.9661 453.595 46.6432C462.196 41.7405 467.616 35.4124 469.996 28.8786C472.551 21.829 471.436 15.09 464.979 10.114Z" fill="white"/>
<path d="M502.035 22.6057H477.206L474.75 29.3525C475.442 29.3525 477.887 29.3525 479.459 29.3525C482.576 29.3525 481.248 33.2015 481.248 33.2015L473.522 54.4281C472.924 56.0635 469.643 64.6312 450.446 63.7083L447.682 71.3057H460.622C477.612 71.3057 486.019 66.7953 489.994 55.8473L502.035 22.6057Z" fill="white"/>
</svg>
