<svg width="320" height="407" viewBox="0 0 320 407" fill="none" xmlns="http://www.w3.org/2000/svg">
<path d="M32.2772 363.024V405.484H18.1241V363.024H6.4984V351.038H43.9029V363.024H32.2772Z" fill="white"/>
<path d="M104.633 364.974C103.092 363.723 101.552 362.808 100.011 362.23C98.4708 361.604 96.9785 361.291 95.5343 361.291C93.705 361.291 92.2126 361.725 91.0573 362.591C89.9019 363.458 89.3243 364.589 89.3243 365.985C89.3243 366.948 89.6131 367.742 90.1908 368.368C90.7685 368.994 91.5146 369.547 92.4293 370.029C93.3921 370.462 94.4511 370.847 95.6065 371.184C96.81 371.521 97.9894 371.882 99.1447 372.267C103.766 373.808 107.136 375.878 109.254 378.477C111.42 381.029 112.503 384.374 112.503 388.514C112.503 391.306 112.022 393.834 111.059 396.096C110.145 398.359 108.773 400.309 106.943 401.945C105.162 403.534 102.948 404.762 100.3 405.628C97.7006 406.543 94.74 407 91.4183 407C84.5344 407 78.1559 404.954 72.2829 400.862L78.3484 389.453C80.4666 391.331 82.5607 392.727 84.6307 393.641C86.7007 394.556 88.7466 395.013 90.7685 395.013C93.0792 395.013 94.7881 394.484 95.8953 393.425C97.0507 392.366 97.6284 391.162 97.6284 389.814C97.6284 388.996 97.4839 388.298 97.1951 387.72C96.9063 387.094 96.4249 386.541 95.7509 386.059C95.077 385.53 94.1864 385.048 93.0792 384.615C92.0201 384.182 90.7203 383.7 89.1799 383.171C87.3505 382.593 85.5453 381.967 83.7642 381.293C82.0311 380.571 80.4666 379.633 79.0705 378.477C77.7226 377.322 76.6154 375.878 75.7489 374.145C74.9305 372.364 74.5213 370.125 74.5213 367.429C74.5213 364.733 74.9546 362.302 75.8211 360.136C76.7358 357.922 77.9874 356.044 79.576 354.504C81.2128 352.915 83.1865 351.688 85.4972 350.821C87.856 349.955 90.4796 349.521 93.368 349.521C96.0638 349.521 98.88 349.906 101.817 350.677C104.753 351.399 107.569 352.482 110.265 353.926L104.633 364.974Z" fill="white"/>
<path d="M135.484 379.344V405.484H122.414V379.344H118.082V368.44H122.414V357.32H135.484V368.44H142.922V379.344H135.484Z" fill="white"/>
<path d="M160.905 368.44V389.309C160.905 393.882 163.12 396.169 167.548 396.169C171.977 396.169 174.192 393.882 174.192 389.309V368.44H187.262V391.836C187.262 396.843 185.601 400.597 182.279 403.101C179.006 405.604 174.095 406.856 167.548 406.856C161.002 406.856 156.067 405.604 152.746 403.101C149.472 400.597 147.835 396.843 147.835 391.836V368.44H160.905Z" fill="white"/>
<path d="M208.271 386.854C208.271 388.057 208.487 389.188 208.921 390.247C209.354 391.258 209.931 392.149 210.654 392.919C211.424 393.689 212.314 394.291 213.325 394.724C214.384 395.158 215.516 395.374 216.719 395.374C217.875 395.374 218.958 395.158 219.969 394.724C221.028 394.291 221.918 393.689 222.64 392.919C223.411 392.149 224.012 391.258 224.446 390.247C224.927 389.236 225.168 388.153 225.168 386.998C225.168 385.843 224.927 384.76 224.446 383.749C224.012 382.69 223.411 381.775 222.64 381.005C221.918 380.234 221.028 379.633 219.969 379.199C218.958 378.766 217.875 378.55 216.719 378.55C215.564 378.55 214.457 378.766 213.398 379.199C212.387 379.633 211.496 380.234 210.726 381.005C210.004 381.775 209.402 382.665 208.921 383.676C208.487 384.639 208.271 385.698 208.271 386.854ZM224.734 345.55H237.876V405.484H224.734V401.368C221.942 404.882 218.163 406.639 213.398 406.639C210.702 406.639 208.223 406.133 205.96 405.123C203.697 404.112 201.724 402.716 200.039 400.934C198.354 399.153 197.03 397.059 196.067 394.652C195.153 392.245 194.695 389.646 194.695 386.854C194.695 384.206 195.129 381.703 195.995 379.344C196.91 376.937 198.185 374.843 199.822 373.062C201.459 371.28 203.409 369.884 205.671 368.873C207.982 367.814 210.509 367.285 213.253 367.285C217.874 367.285 221.702 368.898 224.734 372.123V345.55Z" fill="white"/>
<path d="M259.841 368.44V405.484H246.771V368.44H259.841ZM245.904 354.215C245.904 353.204 246.097 352.265 246.482 351.399C246.867 350.484 247.396 349.69 248.07 349.016C248.744 348.342 249.515 347.812 250.381 347.427C251.296 347.042 252.259 346.85 253.27 346.85C254.28 346.85 255.219 347.042 256.086 347.427C257 347.812 257.795 348.342 258.469 349.016C259.143 349.69 259.672 350.484 260.057 351.399C260.442 352.265 260.635 353.204 260.635 354.215C260.635 355.226 260.442 356.189 260.057 357.103C259.672 357.97 259.143 358.74 258.469 359.414C257.795 360.088 257 360.618 256.086 361.003C255.219 361.388 254.28 361.58 253.27 361.58C252.259 361.58 251.296 361.388 250.381 361.003C249.515 360.618 248.744 360.088 248.07 359.414C247.396 358.74 246.867 357.97 246.482 357.103C246.097 356.189 245.904 355.226 245.904 354.215Z" fill="white"/>
<path d="M281.12 386.781C281.12 388.033 281.336 389.188 281.77 390.247C282.251 391.258 282.853 392.149 283.575 392.919C284.345 393.689 285.236 394.291 286.247 394.724C287.306 395.158 288.413 395.374 289.568 395.374C290.724 395.374 291.807 395.158 292.818 394.724C293.877 394.291 294.767 393.689 295.489 392.919C296.26 392.149 296.861 391.258 297.295 390.247C297.776 389.188 298.017 388.057 298.017 386.854C298.017 385.698 297.776 384.615 297.295 383.604C296.861 382.545 296.26 381.63 295.489 380.86C294.767 380.09 293.877 379.488 292.818 379.055C291.807 378.622 290.724 378.405 289.568 378.405C288.413 378.405 287.306 378.622 286.247 379.055C285.236 379.488 284.345 380.09 283.575 380.86C282.853 381.63 282.251 382.521 281.77 383.532C281.336 384.543 281.12 385.626 281.12 386.781ZM267.328 386.637C267.328 383.893 267.881 381.342 268.989 378.983C270.096 376.576 271.636 374.506 273.61 372.773C275.584 370.992 277.918 369.596 280.614 368.585C283.358 367.574 286.343 367.068 289.568 367.068C292.745 367.068 295.682 367.574 298.378 368.585C301.122 369.547 303.481 370.919 305.454 372.701C307.476 374.434 309.041 376.528 310.148 378.983C311.255 381.39 311.809 384.061 311.809 386.998C311.809 389.935 311.231 392.63 310.076 395.085C308.969 397.492 307.428 399.587 305.454 401.368C303.481 403.101 301.098 404.449 298.306 405.411C295.562 406.374 292.577 406.856 289.352 406.856C286.174 406.856 283.238 406.374 280.542 405.411C277.846 404.449 275.512 403.077 273.538 401.295C271.612 399.514 270.096 397.396 268.989 394.941C267.881 392.438 267.328 389.67 267.328 386.637Z" fill="white"/>
<path d="M0.114743 0.315511C-0.0655004 1.57721 -0.0204396 319.12 0.159803 319.391C0.294986 319.571 72.1218 319.706 159.765 319.706C319.01 319.661 319.145 319.661 319.28 318.76C319.37 318.264 319.415 260.812 319.37 191.103L319.325 64.3468L287.197 32.1735L255.023 8.56109e-05H127.592C57.5221 8.56109e-05 0.159803 0.135268 0.114743 0.315511ZM156.746 37.806C157.061 37.806 157.196 48.3953 157.196 68.6727V99.5393L158.548 99.5843C159.269 99.5843 172.833 99.6294 188.649 99.6294L217.353 99.6744V129.595V159.47L215.46 159.515C214.379 159.515 200.86 159.56 185.45 159.56L157.332 159.605L127.321 129.595L97.3107 99.5843V68.8078L97.2657 38.0314L101.321 37.806C104.25 37.6258 152.735 37.6258 156.746 37.806ZM157.151 189.571C157.151 205.838 157.196 219.401 157.287 219.671C157.422 219.987 166.344 220.122 187.387 220.122L217.353 220.077V250.042V280.008L187.748 279.962C171.436 279.917 157.872 279.872 157.602 279.827C156.971 279.782 97.8064 220.482 97.491 219.626C97.3107 219.13 97.2657 162.759 97.4459 160.461C97.491 160.056 103.799 159.921 127.366 159.921H157.196L157.151 189.571Z" fill="white"/>
</svg>
