<svg width="316" height="315" viewBox="0 0 316 315" fill="none" xmlns="http://www.w3.org/2000/svg">
<path d="M0.463731 0.310867C0.286141 1.554 0.330539 314.423 0.508128 314.689C0.641321 314.867 71.4108 315 157.764 315C314.664 314.956 314.798 314.956 314.931 314.068C315.02 313.579 315.064 256.973 315.02 188.29L314.975 63.3996L283.32 31.6999L251.62 8.52719e-05H126.064C57.0261 8.52719e-05 0.508128 0.133278 0.463731 0.310867ZM154.789 37.2495C155.1 37.2495 155.233 47.6829 155.233 67.6618V98.0741L156.565 98.1185C157.276 98.1185 170.639 98.1628 186.223 98.1628L214.504 98.2072V127.687V157.123L212.639 157.167C211.574 157.167 198.254 157.211 183.07 157.211L155.366 157.256L125.798 127.687L96.229 98.1185V67.795L96.1846 37.4715L100.18 37.2495C103.066 37.072 150.838 37.072 154.789 37.2495ZM155.189 186.78C155.189 202.808 155.233 216.171 155.322 216.438C155.455 216.748 164.246 216.882 184.98 216.882L214.504 216.837V246.362V275.886L185.335 275.841C169.263 275.797 155.899 275.753 155.633 275.708C155.011 275.664 96.7174 217.237 96.4066 216.393C96.229 215.905 96.1846 160.364 96.3622 158.099C96.4066 157.7 102.622 157.567 125.842 157.567H155.233L155.189 186.78Z" fill="white"/>
</svg>
