<svg width="321" height="406" viewBox="0 0 321 406" fill="none" xmlns="http://www.w3.org/2000/svg">
<path d="M2.4597 400.073L4.23102 397.023C4.62389 396.335 5.45962 396.335 5.90245 396.681C6.148 396.828 10.1326 399.729 13.3298 399.729C15.8852 399.729 17.8039 398.057 17.8039 395.942C17.8039 393.434 15.6888 391.712 11.5585 390.04C6.93542 388.173 2.31239 385.221 2.31239 379.418C2.31239 375.041 5.55784 369.976 13.3781 369.976C18.394 369.976 22.2296 372.533 23.2144 373.27C23.7055 373.565 23.8528 374.402 23.5081 374.894L21.6412 377.696C21.2457 378.286 20.5082 378.68 19.9181 378.286C19.5252 378.041 15.787 375.583 13.0843 375.583C10.2799 375.583 8.75502 377.451 8.75502 379.025C8.75502 381.335 10.5737 382.909 14.5575 384.533C19.3296 386.451 24.8375 389.303 24.8375 395.646C24.8375 400.713 20.46 405.385 13.5254 405.385C7.3283 405.385 3.68997 402.483 2.70524 401.55C2.26325 401.106 2.01856 400.861 2.4597 400.073Z" fill="white"/>
<path d="M64.4171 376.369H56.8915C56.3504 376.369 55.9575 375.926 55.9575 375.435V371.401C55.9575 370.91 56.3504 370.467 56.8915 370.467H78.3827C78.9238 370.467 79.3184 370.91 79.3184 371.401V375.435C79.3184 375.926 78.9238 376.369 78.3827 376.369H70.8589V403.959C70.8589 404.45 70.4152 404.893 69.9249 404.893H65.351C64.8582 404.893 64.4171 404.45 64.4171 403.959V376.369Z" fill="white"/>
<path d="M112.602 371.401C112.602 370.91 113.044 370.466 113.536 370.466H118.207C118.749 370.466 119.142 370.91 119.142 371.401V391.516C119.142 395.696 121.995 398.992 126.272 398.992C130.551 398.992 133.455 395.696 133.455 391.565V371.401C133.455 370.91 133.848 370.466 134.388 370.466H139.06C139.551 370.466 139.995 370.91 139.995 371.401V391.859C139.995 399.336 134.042 405.385 126.272 405.385C118.553 405.385 112.602 399.336 112.602 391.859V371.401Z" fill="white"/>
<path d="M189.064 398.893C195.455 398.893 200.128 394.073 200.128 387.631C200.128 381.236 195.455 376.419 189.064 376.419H183.457V398.893H189.064ZM177.114 371.401C177.114 370.91 177.507 370.467 177.999 370.467H189.655C199.146 370.467 206.919 378.189 206.919 387.631C206.919 397.172 199.146 404.894 189.655 404.894H177.999C177.507 404.894 177.114 404.449 177.114 403.958V371.401Z" fill="white"/>
<path d="M242.066 371.401C242.066 370.91 242.506 370.466 243.006 370.466H247.578C248.069 370.466 248.51 370.91 248.51 371.401V403.959C248.51 404.45 248.069 404.894 247.578 404.894H243.006C242.506 404.894 242.066 404.45 242.066 403.959V371.401Z" fill="white"/>
<path d="M301.319 398.992C307.517 398.992 312.631 393.926 312.631 387.729C312.631 381.533 307.517 376.369 301.319 376.369C295.121 376.369 290.058 381.533 290.058 387.729C290.058 393.926 295.121 398.992 301.319 398.992ZM301.319 369.975C311.158 369.975 319.024 377.894 319.024 387.729C319.024 397.564 311.158 405.385 301.319 405.385C291.48 405.385 283.665 397.564 283.665 387.729C283.665 377.894 291.48 369.975 301.319 369.975Z" fill="white"/>
<path d="M218.096 160.046H157.81L97.5245 99.7624V37.5942H157.809V99.7624H218.096V160.046ZM218.096 280.613H157.81L97.5245 220.329V160.046H157.809V220.329H218.096V280.613ZM255.605 5.05097e-05H0V320.16H320.159V64.5552L255.605 5.05097e-05Z" fill="white"/>
</svg>
