<svg width="384" height="357" viewBox="0 0 384 357" fill="none" xmlns="http://www.w3.org/2000/svg">
<path d="M323.756 227.375C326.199 232.762 328.449 237.393 330.419 242.143C334.381 251.7 338.192 261.318 342.061 270.914C342.223 271.314 342.339 271.73 342.479 272.139C344.25 277.252 345.092 282.355 340.786 286.664C336.479 290.973 331.35 290.053 326.269 288.262C310.608 282.775 294.949 277.28 279.293 271.776C278.296 271.428 277.273 271.159 275.79 270.711C275.884 272.038 275.882 272.957 276.032 273.858C278.494 289.836 281.006 305.813 283.415 321.817C283.88 324.899 284.228 328.046 284.141 331.152C283.899 340.334 275.581 344.951 268.04 339.744C262.49 335.907 257.373 331.319 252.556 326.567C242.862 317.005 231.523 309.783 220.067 302.676C219.803 302.511 219.469 302.46 218.751 302.213C218.303 303.363 217.766 304.479 217.43 305.653C213.746 318.505 210.075 331.36 206.417 344.22C205.824 346.287 205.256 348.393 204.361 350.337C202.817 353.69 200.226 355.876 196.377 356.012C192.382 356.15 189.501 354.097 187.875 350.642C186.602 347.936 185.886 344.963 184.972 342.097C180.68 328.768 176.39 315.438 172.101 302.107C171.779 301.107 171.247 300.17 170.705 298.96C169.931 299.512 169.282 299.858 168.769 300.349C157.19 311.631 145.582 322.883 134.083 334.241C130.321 337.96 126.457 341.305 120.777 339.226C115.186 337.183 113.606 332.229 113.519 326.952C113.277 312.94 113.327 298.921 113.277 284.907C113.277 281.91 113.277 278.915 113.277 275.485C111.782 275.727 110.746 275.829 109.752 276.085C94.4299 280.077 79.1178 284.11 63.7839 288.088C59.5065 289.197 55.2 290.194 50.8936 291.186C45.3291 292.47 41.4581 291.17 39.2686 287.345C37.1202 283.6 38.0589 279.453 42.0654 275.444C54.1234 263.412 66.1936 251.395 78.2759 239.392C78.9484 238.724 79.5751 238.01 80.5404 236.972C79.4105 236.684 78.663 236.403 77.8936 236.311C62.913 234.517 47.9275 232.769 32.9517 230.946C30.1767 230.607 27.3702 230.22 24.6944 229.452C15.2976 226.765 12.6121 217.462 19.7057 210.725C25.8339 204.886 32.6662 199.732 39.4355 194.575C45 190.339 50.9323 186.57 56.688 182.575C57.2686 182.173 57.7646 181.65 58.6234 180.907C57.3291 180.336 56.3879 179.91 55.4371 179.503C42.1476 173.829 28.8267 168.261 15.6097 162.451C12.1839 160.945 8.95892 158.878 5.8694 156.738C1.93795 154.016 -0.607211 150.332 0.128273 145.236C0.868595 140.097 4.39602 137.085 9.00973 136.037C17.1726 134.166 25.4347 132.381 33.7525 131.621C43.7154 130.713 53.7775 130.914 63.7984 130.653C64.8339 130.624 65.8742 130.653 67.5944 130.653C66.7089 129.082 66.2734 128.009 65.5863 127.133C56.146 115.09 46.6855 103.071 37.2049 91.0745C35.4678 88.8763 33.4984 86.8453 31.921 84.5382C27.3436 77.8591 30.213 70.185 38.2113 69.1828C45.1089 68.3185 52.1904 68.5872 59.1702 68.8414C71.7726 69.299 84.3605 70.1221 96.9533 70.7781C97.4783 70.8072 98.0057 70.7369 98.9251 70.6934C98.9251 69.7952 98.9081 68.9867 98.9251 68.1781C99.2371 54.602 99.5154 41.0259 99.9146 27.4522C100.011 25.6193 100.392 23.8126 101.044 22.0973C103.447 15.4158 110.86 13.6243 115.899 18.5992C118.183 20.8578 120.075 23.528 122.02 26.1038C128.311 34.4509 134.54 42.844 140.802 51.2128C141.044 51.5372 141.394 51.7866 142.062 52.4232C142.565 51.0869 143.001 50.046 143.352 48.9784C147.433 36.5885 151.473 24.1841 155.601 11.8087C156.382 9.47016 157.239 7.08321 158.504 4.9916C162.329 -1.32197 169.931 -1.72383 174.348 4.17577C175.993 6.44502 177.356 8.90566 178.408 11.5037C182.792 21.9424 187.026 32.4513 191.318 42.9142C191.748 43.9648 192.16 45.0227 192.844 46.7415C195.368 42.7205 197.49 39.2659 199.682 35.8598C204.762 27.9751 209.819 20.0783 215.003 12.2638C216.497 10.0195 218.207 7.92681 220.108 6.01562C226.742 -0.639289 235.415 0.859214 239.267 9.46532C240.689 12.7264 241.672 16.1616 242.192 19.6813C243.353 27.2416 244.111 34.8624 245.023 42.4615C245.163 43.6186 245.24 44.7806 245.383 46.3614C246.414 45.9136 247.149 45.6352 247.856 45.2793C264.281 37.1937 280.689 29.0597 297.15 21.0491C299.495 19.953 301.953 19.1176 304.481 18.558C315.723 15.8951 323.661 23.0947 321.256 34.3492C319.829 41.038 317.194 47.4944 314.797 53.9435C313.345 57.8387 311.315 61.5135 309.385 65.6265C311.562 65.6265 313.336 65.7548 315.09 65.6048C324.968 64.755 334.839 63.8061 344.719 62.966C347.073 62.7651 349.476 62.6102 351.813 62.8522C360.215 63.7238 365.119 70.6982 362.683 78.779C361.648 82.2166 359.978 85.6905 357.779 88.506C350.417 97.9327 342.69 107.069 335.1 116.317C334.568 116.963 334.033 117.605 333.196 118.614C334.478 119.212 335.465 119.766 336.518 120.146C348.776 124.577 361.042 128.996 373.316 133.405C375.136 134.064 376.979 134.739 378.658 135.683C382.096 137.62 384.121 140.544 384 144.641C383.879 148.737 381.622 151.542 378.056 153.184C375.823 154.21 373.394 154.842 371.008 155.493C359.272 158.696 347.521 161.846 335.732 165.024C335.773 165.47 335.693 165.847 335.845 166.06C346.208 180.639 356.58 195.209 366.961 209.771C367.711 210.824 368.448 211.889 369.138 212.983C371.412 216.569 372.307 220.355 370.219 224.306C368.069 228.382 364.331 229.995 359.966 229.789C350.603 229.348 341.25 228.658 331.902 228.051C329.441 227.879 326.993 227.642 323.756 227.375ZM321.191 267.895C321.433 267.632 321.692 267.365 321.941 267.101C320.475 263.54 319.084 259.948 317.526 256.428C313.292 246.873 308.877 237.395 304.807 227.77C304.05 225.976 303.965 223.412 304.626 221.607C305.715 218.61 307.626 215.905 309.264 213.121C310.819 210.485 313.111 209.178 316.256 209.391C322.597 209.822 328.943 210.19 335.289 210.57C338.746 210.776 342.208 210.952 346.224 211.173C345.45 209.766 345.157 209.083 344.736 208.49C336.138 196.362 327.965 183.897 318.733 172.272C314.015 166.331 315.085 160.926 317.214 155.166C317.898 153.312 320.286 151.441 322.277 150.835C329.586 148.616 337.057 146.933 344.456 145.025C345.278 144.812 346.036 144.36 347.378 143.776L344.947 142.726C336.922 139.303 328.771 136.136 320.903 132.381C312.556 128.402 310.66 117.747 316.606 110.712C323.981 101.986 331.319 93.2306 338.623 84.4462C339.179 83.7805 339.561 82.9671 340.241 81.8801C339.015 81.8147 338.383 81.7155 337.761 81.7566C325.503 82.5636 313.25 83.3746 301.002 84.1896C291.346 84.8432 284.753 75.1623 288.953 66.5005C292.952 58.2696 296.923 50.0185 300.869 41.7473C301.321 40.7959 301.481 39.7065 301.931 38.1402C300.315 38.7624 299.378 39.0263 298.544 39.462C282.929 47.4871 267.22 55.3379 251.794 63.7092C247.582 65.9945 243.762 66.9774 239.269 65.6169C238.449 65.3748 237.576 65.2779 236.736 65.1109C230.468 63.8787 229.009 62.3995 228.382 55.9456C227.872 50.6899 227.688 45.4028 227.243 40.1423C226.89 35.9615 226.36 31.7952 225.907 27.6241C224.153 29.0064 223.176 30.4056 222.259 31.8436C215.761 42.0112 209.194 52.1448 202.834 62.4117C200.354 66.423 197.19 68.4759 192.443 67.9118C191.16 67.7403 189.866 67.6594 188.572 67.6697C184.161 67.7714 181.706 65.4595 180.203 61.4869C176.654 52.1158 172.945 42.8076 169.275 33.4801C168.869 32.4416 168.356 31.4442 167.497 29.5656C166.089 33.6084 165.051 36.7434 163.909 39.8421C160.483 49.1454 157.135 58.4826 153.46 67.6818C152.707 69.5532 150.852 71.5552 149.02 72.2814C146.395 73.3176 143.337 73.3781 140.444 73.5766C136.926 73.8187 133.856 72.7269 131.712 69.7032C128.223 64.7792 124.733 59.8569 121.241 54.9361C120.486 53.8733 119.724 52.813 118.965 51.7502L118.05 52.1037C118.258 56.4612 118.776 60.8187 118.585 65.1763C118.377 69.8679 118.851 75.3608 116.606 79.0138C113.146 84.6423 108.034 89.7261 100.154 89.1668C86.4025 88.1921 72.6517 87.2011 58.9017 86.194C58.1154 86.1384 57.3218 86.194 55.892 86.194C56.9589 87.5134 57.617 88.3147 58.2605 89.1233C65.5694 98.3225 72.7234 107.635 80.2283 116.66C86.8138 124.579 87.513 132.597 82.6476 141.665C80.4291 145.798 77.267 147.647 73.0888 148.327C70.8751 148.688 68.5767 148.557 66.3146 148.584C56.3952 148.703 46.4759 148.773 36.571 148.923C34.95 148.947 33.3339 149.284 31.7154 149.475C35.6904 151.864 39.7355 153.59 43.7904 155.285C53.7267 159.439 63.8904 163.129 73.5484 167.854C83.9517 172.938 84.2783 185.587 74.7581 192.017C65.1025 198.521 55.517 205.113 45.9146 211.693C45.1234 212.235 44.4194 212.904 43.1371 213.945C49.0379 214.591 54.0654 215.143 59.1049 215.688C69.5928 216.825 80.0589 218.309 90.5759 218.934C95.3638 219.217 98.5984 220.713 100.737 224.848C101.221 225.816 101.794 226.729 102.295 227.683C105.857 234.461 105.496 237.577 100.101 242.975C93.3944 249.688 86.5525 256.258 79.7783 262.904C79.0089 263.659 78.3267 264.504 77.0275 265.956C78.6194 265.625 79.2412 265.516 79.8533 265.366C88.321 263.277 96.9025 261.541 105.23 258.992C114.208 256.246 120.864 259.282 126.919 265.642C129.385 268.23 130.817 270.871 130.761 274.471C130.616 283.742 130.614 293.019 130.568 302.293C130.548 305.765 130.568 309.236 130.568 313.187C131.536 312.408 132.14 311.998 132.656 311.493C140.415 304.007 148.084 296.428 155.937 289.042C165.748 279.813 163.045 279.487 178.679 282.66C181.391 283.212 183.201 284.5 184.244 286.981C186.779 293.034 189.348 299.086 191.816 305.181C192.975 308.04 193.936 310.991 195.315 314.795C196.04 312.73 196.447 311.56 196.868 310.396C199.36 303.511 201.999 296.672 204.305 289.724C206.335 283.604 210.184 280.193 216.745 279.973C218.124 279.925 219.503 279.508 220.858 279.157C224.649 278.172 227.632 279.428 230.644 281.82C240.511 289.661 250.575 297.256 260.584 304.913C261.537 305.639 262.652 306.157 264.155 307.043C264.07 305.808 264.077 305.285 263.993 304.777C262.343 294.895 261.039 284.926 258.912 275.156C256.996 266.334 259.923 260.146 267.165 255.336C270.409 253.184 273.566 252.133 277.466 253.443C288.29 257.074 299.177 260.512 310.031 264.058C313.752 265.296 317.465 266.62 321.191 267.895Z" fill="white"/>
<path d="M151.761 141.097C152.555 146.067 153.348 151.037 154.142 156.007C154.57 158.67 155.025 161.332 155.46 163.976C155.561 164.395 155.609 164.826 155.603 165.257C155.088 170.931 149.891 171.047 146.281 172.94C143.734 174.279 141.201 173.78 139.343 171.401C128.052 156.977 116.786 142.539 105.544 128.085C103.188 125.042 103.991 122.103 107.405 120.352C108.936 119.566 110.55 118.927 112.123 118.237C117.506 115.888 118.882 116.266 122.444 121.062C125.589 125.298 128.734 129.547 131.906 133.761C132.606 134.739 133.611 135.455 134.763 135.797C133.706 129.789 132.728 123.766 131.569 117.777C130.217 110.8 135.682 104.544 142.887 105.394C144.556 105.592 146.39 107.023 147.552 108.396C151.181 112.666 154.495 117.183 157.955 121.592C158.645 122.55 159.591 123.294 160.684 123.739C160.587 122.442 160.611 121.12 160.372 119.849C159.387 114.663 158.303 109.497 157.294 104.317C156.457 100.027 157.413 98.1484 161.34 96.3279C163.098 95.5121 164.877 94.7398 166.662 93.9966C170.666 92.3311 173.499 93.832 174.24 98.0467C176.678 111.946 179.103 125.845 181.515 139.746C182.181 143.563 182.84 147.383 183.494 151.206C184.067 154.537 182.768 156.752 179.683 158.185C170.424 162.482 170.434 162.543 163.996 154.571C160.88 150.717 157.822 146.824 154.723 142.951C154.084 142.152 153.375 141.411 152.7 140.646L151.761 141.097Z" fill="white"/>
<path d="M177.307 229.373C178.275 227.514 178.795 226.531 179.291 225.536C182.129 219.847 184.979 214.158 187.783 208.462C189.273 205.428 191.516 204.361 194.903 204.966C204.414 206.66 204.745 206.794 205.144 216.344C205.81 232.28 206.315 248.224 206.838 264.165C206.99 268.874 204.774 270.665 200.175 269.755C198.907 269.513 197.647 269.213 196.389 268.915C190.294 267.479 189.498 266.494 189.455 260.081C189.416 254.271 189.455 248.488 189.455 242.692L188.523 242.375C188.04 243.055 187.471 243.685 187.11 244.421C184.539 249.64 182.047 254.898 179.456 260.108C177.631 263.778 175.928 264.56 171.864 263.79C170.49 263.531 169.12 263.226 167.751 262.911C164.001 262.047 162.682 260.466 162.523 256.658C162.281 250.734 162.039 244.813 161.773 238.889C161.746 238.282 161.586 237.679 161.31 236.003C160.321 237.623 159.745 238.395 159.344 239.25C157.06 244.128 154.827 249.03 152.569 253.915C150.634 258.062 148.771 258.956 144.319 257.939C142.848 257.602 141.36 257.348 139.894 257.002C134.92 255.833 133.681 253.315 135.89 248.771C142.342 235.495 148.803 222.224 155.274 208.958C156.452 206.537 157.592 204.094 158.823 201.695C160.11 199.197 162.184 198.161 164.981 198.65C165.085 198.669 165.194 198.684 165.3 198.701C175.14 200.267 175.778 201.022 176.098 211.122C176.26 216.184 176.475 221.246 176.7 226.308C176.71 226.991 176.949 227.664 177.307 229.373Z" fill="white"/>
<path d="M236.935 202.07C237.419 196.108 238.011 190.15 238.343 184.18C238.686 178.002 239.896 176.521 246.068 175.603C253.381 174.519 253.844 174.778 256.752 181.554C258.748 186.204 260.736 190.857 262.752 195.5C263.117 196.419 263.813 197.167 264.702 197.599C264.884 194.885 265.064 192.169 265.241 189.453C265.517 185.263 265.783 181.07 266.085 176.879C266.123 176.235 266.262 175.601 266.499 175.001C267.977 171.425 279.08 168.796 281.78 171.592C282.815 172.664 283.447 174.693 283.335 176.216C282.368 189.429 281.197 202.627 280.086 215.828C279.745 219.91 279.481 223.996 279.041 228.066C278.577 232.387 277.224 233.619 273.051 234.36C264.583 235.839 263.857 236.754 259.834 227.155C257.792 222.287 255.61 217.472 253.471 212.652C253.117 211.768 252.476 211.029 251.652 210.553C251.116 215.96 250.583 221.366 250.052 226.773C249.81 229.131 249.585 231.489 249.327 233.842C249.29 234.381 249.17 234.911 248.971 235.413C246.735 240.317 241.88 239.078 237.99 239.93C235.176 240.545 233.248 238.855 232.171 236.342C225.168 220.005 218.192 203.654 211.244 187.291C209.923 184.176 211.149 181.723 214.478 180.849C217.179 180.112 219.94 179.618 222.728 179.375C225.532 179.162 227.308 180.915 228.329 183.43C230.515 188.819 232.692 194.209 234.861 199.601C235.215 200.473 235.616 201.322 235.996 202.184L236.935 202.07Z" fill="white"/>
<path d="M193.79 122.226C193.965 112.853 198.406 104.338 208.106 99.0756C217.2 94.1443 226.546 93.0791 235.655 99.0441C238.036 100.603 240.097 102.801 241.916 105.021C243.956 107.512 243.433 110.236 240.798 111.981C238.74 113.342 236.596 114.903 234.266 115.431C232.456 115.842 229.788 115.431 228.421 114.286C224.485 110.991 220.619 110.618 216.201 112.901C211.868 115.14 210.45 118.973 210.784 123.42C211.348 130.961 215.027 136.918 221.173 141.208C224.598 143.6 228.452 143.992 232.123 141.661C235.977 139.208 237.353 135.531 236.613 131.053C236.458 130.097 236.248 129.151 235.984 128.22C235.297 125.799 236.093 123.945 238.123 122.652C240.031 121.442 242.018 120.355 244.019 119.304C247.164 117.656 249.794 118.447 251.105 121.754C254.216 129.605 254.678 137.511 250.529 145.178C248.608 148.749 245.926 151.854 242.674 154.275C239.421 156.695 235.678 158.371 231.707 159.185C227.736 159.999 223.635 159.931 219.694 158.985C215.753 158.039 212.067 156.239 208.897 153.712C200.027 146.66 194.02 134.747 193.79 122.226Z" fill="white"/>
</svg>
